<svg class="clouds2" width="811" height="714" viewBox="0 0 811 714" fill="none" xmlns="http://www.w3.org/2000/svg">
<ellipse rx="105.284" ry="148.356" transform="matrix(0.749701 0.661777 0.638293 -0.769793 475.112 355.35)" fill="#E9F4FF"/>
<ellipse rx="120.123" ry="162.724" transform="matrix(0.749701 0.661777 0.638293 -0.769793 636.549 450.185)" fill="#E9F4FF"/>
<ellipse rx="81.495" ry="102.914" transform="matrix(0.749701 0.661777 0.638293 -0.769793 625.248 264.079)" fill="#E9F4FF"/>
<ellipse rx="84.4674" ry="87.3821" transform="matrix(0.938423 -0.34549 -0.350997 -0.936377 186.062 243.587)" fill="#E9F4FF"/>
<ellipse rx="96.3721" ry="95.8448" transform="matrix(0.938423 -0.34549 -0.350997 -0.936377 317.874 172.619)" fill="#E9F4FF"/>
<ellipse rx="65.3819" ry="60.6164" transform="matrix(0.938423 -0.34549 -0.350997 -0.936377 194.531 135.113)" fill="#E9F4FF"/>
<ellipse rx="85.6612" ry="104.635" transform="matrix(0.754762 0.655999 0.641454 -0.767161 137.051 471.735)" fill="#E9F4FF"/>
<ellipse rx="97.7342" ry="114.768" transform="matrix(0.754762 0.655999 0.641454 -0.767161 266.768 551.073)" fill="#E9F4FF"/>
<ellipse rx="66.306" ry="72.5843" transform="matrix(0.754762 0.655999 0.641454 -0.767161 248.208 411.516)" fill="#E9F4FF"/>
</svg>
