<svg class="clouds" width="688" height="728" viewBox="0 0 688 728" fill="none" xmlns="http://www.w3.org/2000/svg">
<ellipse rx="141.605" ry="149.664" transform="matrix(-0.999231 -0.0392064 -0.0392064 0.999231 527.636 165.633)" fill="#E9F4FF"/>
<ellipse rx="161.562" ry="164.159" transform="matrix(-0.999231 -0.0392064 -0.0392064 0.999231 277.734 191.924)" fill="#E9F4FF"/>
<ellipse rx="109.609" ry="103.821" transform="matrix(-0.999231 -0.0392064 -0.0392064 0.999231 443.931 331.82)" fill="#E9F4FF"/>
<ellipse rx="89.6465" ry="82.9785" transform="matrix(0.936873 -0.349669 -0.346976 -0.937874 144.331 611.999)" fill="#E9F4FF"/>
<ellipse rx="102.281" ry="91.0147" transform="matrix(0.936873 -0.349669 -0.346976 -0.937874 284.887 538.195)" fill="#E9F4FF"/>
<ellipse rx="69.3908" ry="57.5617" transform="matrix(0.936873 -0.349669 -0.346976 -0.937874 157.498 506.872)" fill="#E9F4FF"/>
<ellipse rx="63.5469" ry="68.3451" transform="matrix(-0.922168 0.38679 0.395021 0.918672 613.565 475.415)" fill="#E9F4FF"/>
<ellipse rx="72.5032" ry="74.9641" transform="matrix(-0.922168 0.38679 0.395021 0.918672 517.159 533.711)" fill="#E9F4FF"/>
<ellipse rx="49.1884" ry="47.4105" transform="matrix(-0.922168 0.38679 0.395021 0.918672 612.195 559.843)" fill="#E9F4FF"/>
</svg>
