<svg width="86" height="85" viewBox="0 0 86 85" fill="none" xmlns="http://www.w3.org/2000/svg">
<path d="M86 42.5C86 19.0254 66.7508 0 43 0C19.2492 0 0 19.0254 0 42.5C0 65.9746 19.2492 85 43 85C43.252 85 43.5039 85 43.7559 84.9834V51.9131H34.5176V41.2715H43.7559V33.4355C43.7559 24.3545 49.366 19.4072 57.5629 19.4072C61.4934 19.4072 64.8695 19.6895 65.8438 19.8223V29.3184H60.2C55.7488 29.3184 54.8754 31.4102 54.8754 34.4814V41.2549H65.5414L64.1473 51.8965H54.8754V83.3564C72.848 78.2598 86 61.9072 86 42.5Z" fill="#2DC0FF"/>
</svg>
