<svg class="flyingwithlaptop" width="579" height="539" viewBox="0 0 579 539" fill="none" xmlns="http://www.w3.org/2000/svg">
<path d="M301.881 365.401L302.948 347.628L303.215 343.185L255.515 340.321L254.18 362.537C254.172 370.181 269.291 389.138 276.852 397.661C288.364 408.545 360.128 470.13 395.79 498.39L406.133 486.329C393.793 466.732 331.49 397.545 301.881 365.401Z" fill="#FFD4AC"/>
<path d="M415.543 489.613C414.393 485.669 409.785 481.811 407.624 480.376C399.37 493.657 393.279 496.989 391.264 496.995C382.126 515.641 384.455 526.056 386.762 528.933C398.544 522.221 410.858 499.923 415.543 489.613Z" fill="#F0F0F0"/>
<path d="M407.732 288.049L381.969 279.114L364.469 270.419L339.457 321.154L357.556 329.248L380.644 335.094C389.124 338.152 432.217 325.756 442.905 324.181C464.126 317.811 488.039 309.157 530.13 294.509L528.684 277.918C500.064 276.2 473.951 292.025 407.732 288.049Z" fill="#FFD4AC"/>
<path d="M538.469 274.67C535.076 272.689 529.416 273.385 527.01 273.981C530.283 289.816 528.401 296.828 527.051 298.354C533.291 318.734 541.775 324.498 545.237 324.833C548.699 311.079 542.168 285.66 538.469 274.67Z" fill="#F0F0F0"/>
<path d="M253.488 345.932C253.149 314.06 251.834 251.551 249.257 247.574L291.208 205.501C300.597 214.218 308.092 230.722 310.665 237.884C329.684 249.431 368.387 272.693 371.05 273.362C374.379 274.199 361.038 327.546 360.924 329.451C351.077 328.35 324.014 312.582 311.713 304.836C310.21 311.116 309.312 344.825 306.953 346.595C303.087 350.949 269.699 347.967 253.488 345.932Z" fill="#161618"/>
<path d="M173.819 20.3028C216.213 21.5614 211.136 50.6645 203.298 65.0587L201.944 65.5157L146.314 52.6765C131.285 33.4349 158.389 23.0767 173.819 20.3028Z" fill="#1A1717"/>
<path d="M49.7516 155.963L81.2646 147.026L127.697 180.392L86.4909 191.295L49.7516 155.963Z" fill="#B6B6B6"/>
<path d="M167.534 154.755C165.542 153.773 156.663 139.129 151.178 136.391L146.934 141.414C131.972 137.33 109.089 133.864 89.2844 135.404C85.6923 136.132 68.8463 134.917 63.4938 143.853C62.2973 146.213 60.386 151.065 62.3131 151.598C62.7721 151.856 64.1238 151.39 66.0891 147.807C64.9788 150.115 63.929 153.375 65.8656 153.765C66.709 153.209 69.2935 150.646 72.8836 144.837C71.0206 147.909 67.8661 154.168 70.1524 154.629C70.6014 154.538 71.9485 154.265 75.0891 147.277C74.2192 149.763 72.7652 154.792 73.9083 155.022C74.3573 154.931 74.072 156.144 76.4387 153.355C76.8877 153.264 79.1834 148.602 81.2648 147.026C84.3261 145.828 88.1647 144.666 98.1384 147.402C112.577 151.363 136.631 153.536 147.512 159.923C149.218 160.025 159.515 166.377 167.534 154.755Z" fill="#FFD4AD"/>
<path d="M86.4909 191.295C81.3888 169.967 70.8708 126.908 69.6154 125.304L24.6002 96.482L38.223 160.367L86.4909 191.295Z" fill="#7E7B7B"/>
<path d="M148.96 135.802C163.147 109.644 186.257 96.2099 196.038 92.7627C203.047 88.5969 209.536 89.9634 211.904 91.1673C235.036 96.1239 251.785 127.325 257.269 142.307C267.181 164.816 283.981 188.291 291.143 197.215C290.638 220.628 262.958 241.389 249.181 248.843L221.954 205.164L197.207 185.841C188.625 178.7 179.766 157.4 176.41 147.643L167.382 157.294L148.96 135.802Z" fill="#4FBFFF"/>
<path d="M185.278 51.2225C205.922 40.3471 204.957 52.7333 201.893 60.2858L203.75 68.216C203.75 68.216 210.14 91.8749 209.584 93.1396C209.027 94.4042 205.232 96.9983 204.181 97.7311C203.131 98.464 200.21 100.65 196.829 101.766C193.447 102.882 182.098 103.322 181.374 102.655C180.65 101.989 176.866 83.3963 176.866 83.3963C156.448 90.284 148.903 69.1971 147.683 57.7927C146.636 48.3671 155.506 43.745 160.073 42.6122C171.257 35.9057 181.536 45.558 185.278 51.2225Z" fill="#FFD4AD"/>
<path d="M219.312 197.708C217.159 196.05 210.943 188.969 203.96 184.973L198.394 190.828C183.028 180.986 144.664 156.705 121.288 155.81C116.799 155.541 105.67 157.038 97.0705 165.186C95.0601 167.401 91.5853 172.118 93.769 173.269C94.2573 173.685 95.9935 173.577 99.2243 170.258C97.3299 172.443 95.2767 175.681 97.5067 176.679C98.6544 176.323 102.381 174.296 108.103 169.033C105.12 171.827 99.8103 177.709 102.443 178.886C103.004 178.92 104.688 179.021 110.158 172.342C108.509 174.791 105.54 179.837 106.856 180.425C107.417 180.459 106.78 181.695 110.299 179.358C110.861 179.392 114.01 173.847 116.892 172.746C120.858 172.348 130.092 172.392 135.296 175.763C149.524 188.933 184.091 211.044 198.336 213.938C199.458 214.005 214.611 219.722 219.312 197.708Z" fill="#FFD4AD"/>
</svg>
