<svg width="688" height="728" viewBox="0 0 688 728" fill="none" xmlns="http://www.w3.org/2000/svg">
<ellipse rx="141.605" ry="149.664" transform="matrix(-0.999231 -0.0392064 -0.0392064 0.999231 527.636 165.633)" fill="#E9F4FF"/>
<ellipse rx="161.562" ry="164.159" transform="matrix(-0.999231 -0.0392064 -0.0392064 0.999231 277.734 191.924)" fill="#E9F4FF"/>
<ellipse rx="109.609" ry="103.821" transform="matrix(-0.999231 -0.0392064 -0.0392064 0.999231 443.931 331.82)" fill="#E9F4FF"/>
<ellipse rx="89.6465" ry="82.9785" transform="matrix(0.936873 -0.349669 -0.346976 -0.937874 144.331 611.999)" fill="#E9F4FF"/>
<ellipse rx="102.281" ry="91.0147" transform="matrix(0.936873 -0.349669 -0.346976 -0.937874 284.887 538.195)" fill="#E9F4FF"/>
<ellipse rx="69.3908" ry="57.5617" transform="matrix(0.936873 -0.349669 -0.346976 -0.937874 157.498 506.872)" fill="#E9F4FF"/>
<ellipse rx="63.5469" ry="68.3451" transform="matrix(-0.922168 0.38679 0.395021 0.918672 613.565 475.415)" fill="#E9F4FF"/>
<ellipse rx="72.5032" ry="74.9641" transform="matrix(-0.922168 0.38679 0.395021 0.918672 517.159 533.711)" fill="#E9F4FF"/>
<ellipse rx="49.1884" ry="47.4105" transform="matrix(-0.922168 0.38679 0.395021 0.918672 612.195 559.843)" fill="#E9F4FF"/>
<path d="M399.881 488.401L400.948 470.628L401.215 466.185L353.514 463.321L352.18 485.537C352.172 493.181 367.291 512.138 374.852 520.661C386.364 531.545 458.127 593.13 493.79 621.39L504.133 609.329C491.793 589.732 429.49 520.545 399.881 488.401Z" fill="#FFD4AC"/>
<path d="M513.543 612.613C512.393 608.669 507.784 604.811 505.624 603.376C497.37 616.657 491.278 619.989 489.264 619.995C480.126 638.641 482.455 649.056 484.762 651.933C496.544 645.221 508.858 622.923 513.543 612.613Z" fill="#F0F0F0"/>
<path d="M505.732 411.049L479.969 402.114L462.468 393.419L437.457 444.154L455.556 452.248L478.644 458.094C487.124 461.152 530.217 448.756 540.905 447.181C562.126 440.811 586.039 432.157 628.13 417.509L626.684 400.918C598.064 399.2 571.951 415.025 505.732 411.049Z" fill="#FFD4AC"/>
<path d="M636.469 397.67C633.076 395.689 627.416 396.385 625.01 396.981C628.283 412.816 626.401 419.828 625.051 421.354C631.291 441.734 639.775 447.498 643.237 447.833C646.699 434.079 640.167 408.66 636.469 397.67Z" fill="#F0F0F0"/>
<path d="M351.488 468.932C351.149 437.06 349.834 374.551 347.257 370.574L389.208 328.501C398.597 337.218 406.091 353.722 408.665 360.884C427.684 372.431 466.387 395.693 469.05 396.362C472.379 397.199 459.038 450.546 458.923 452.451C449.077 451.35 422.014 435.582 409.713 427.836C408.21 434.116 407.312 467.825 404.953 469.595C401.087 473.949 367.699 470.967 351.488 468.932Z" fill="#161618"/>
<path d="M271.819 143.303C314.212 144.561 309.136 173.665 301.298 188.059L299.943 188.516L244.314 175.676C229.285 156.435 256.388 146.077 271.819 143.303Z" fill="#1A1717"/>
<path d="M147.751 278.963L179.264 270.026L225.696 303.392L184.491 314.295L147.751 278.963Z" fill="#B6B6B6"/>
<path d="M265.534 277.755C263.542 276.773 254.663 262.129 249.178 259.391L244.934 264.414C229.972 260.33 207.089 256.864 187.284 258.404C183.692 259.132 166.846 257.917 161.494 266.853C160.297 269.213 158.386 274.065 160.313 274.598C160.772 274.856 162.124 274.39 164.089 270.807C162.979 273.115 161.929 276.375 163.865 276.765C164.709 276.209 167.293 273.646 170.884 267.837C169.02 270.909 165.866 277.168 168.152 277.629C168.601 277.538 169.948 277.265 173.089 270.277C172.219 272.763 170.765 277.792 171.908 278.022C172.357 277.931 172.072 279.144 174.439 276.355C174.888 276.264 177.183 271.602 179.265 270.026C182.326 268.828 186.165 267.666 196.138 270.402C210.577 274.363 234.631 276.536 245.512 282.923C247.217 283.025 257.515 289.377 265.534 277.755Z" fill="#FFD4AD"/>
<path d="M184.491 314.295C179.389 292.967 168.871 249.908 167.615 248.304L122.6 219.482L136.223 283.367L184.491 314.295Z" fill="#7E7B7B"/>
<path d="M246.96 258.802C261.147 232.644 284.257 219.21 294.038 215.763C301.047 211.597 307.536 212.963 309.904 214.167C333.036 219.124 349.785 250.325 355.268 265.307C365.181 287.816 381.981 311.291 389.142 320.215C388.638 343.628 360.958 364.389 347.181 371.843L319.954 328.164L295.207 308.841C286.625 301.7 277.766 280.4 274.41 270.643L265.382 280.294L246.96 258.802Z" fill="#4FBFFF"/>
<path d="M283.278 174.223C303.922 163.347 302.957 175.733 299.893 183.286L301.75 191.216C301.75 191.216 308.14 214.875 307.584 216.14C307.027 217.404 303.232 219.998 302.181 220.731C301.13 221.464 298.21 223.65 294.828 224.766C291.447 225.882 280.098 226.322 279.374 225.655C278.65 224.989 274.866 206.396 274.866 206.396C254.448 213.284 246.903 192.197 245.683 180.793C244.636 171.367 253.506 166.745 258.072 165.612C269.257 158.906 279.536 168.558 283.278 174.223Z" fill="#FFD4AD"/>
<path d="M317.312 320.708C315.159 319.05 308.943 311.969 301.96 307.973L296.394 313.828C281.028 303.986 242.664 279.705 219.288 278.81C214.799 278.541 203.67 280.038 195.07 288.186C193.06 290.401 189.585 295.118 191.769 296.269C192.257 296.685 193.993 296.577 197.224 293.258C195.33 295.443 193.277 298.681 195.507 299.679C196.654 299.323 200.381 297.296 206.103 292.033C203.12 294.827 197.81 300.709 200.443 301.886C201.004 301.92 202.688 302.021 208.157 295.342C206.509 297.791 203.54 302.837 204.856 303.425C205.417 303.459 204.78 304.695 208.299 302.358C208.861 302.392 212.01 296.847 214.892 295.746C218.858 295.348 228.092 295.392 233.296 298.763C247.524 311.933 282.091 334.044 296.336 336.938C297.458 337.005 312.611 342.722 317.312 320.708Z" fill="#FFD4AD"/>
</svg>
