<svg width="67" height="67" viewBox="0 0 67 67" fill="none" xmlns="http://www.w3.org/2000/svg">
<path fill-rule="evenodd" clip-rule="evenodd" d="M31.9553 1.17505C34.0302 1.20944 35.6178 1.74821 36.9834 3.03781C38.3135 4.35291 39.15 6.24108 39.3093 8.28794C39.497 9.85146 39.3814 11.4453 38.9715 12.9477C38.2818 15.7575 36.2606 17.8188 33.8179 18.2035C32.1289 18.6056 30.3759 18.3504 28.8187 17.4756C27.0991 16.5103 25.8521 14.6546 25.4408 12.449C24.7737 9.7771 25.1171 6.8927 26.3818 4.54521C27.175 3.13936 28.3612 2.11206 29.7307 1.64504C30.4473 1.35293 31.1977 1.19439 31.9553 1.17505Z" fill="white" stroke="white"/>
<path fill-rule="evenodd" clip-rule="evenodd" d="M30.5414 3.33594C30.9274 2.69973 31.0529 2.66534 31.6368 3.04935C32.1483 2.32145 32.9203 2.37876 33.5091 3.18692C33.7021 3.4563 33.8758 3.76007 34.0736 4.01226C34.1455 4.10233 34.2376 4.16599 34.3391 4.19567C36.1149 4.70578 37.5142 6.4883 37.3164 8.86117C37.2219 9.4562 37.0913 10.0424 36.9255 10.615C36.8772 10.8018 36.8772 11.0014 36.9255 11.1882C37.0924 11.4866 37.1227 11.8642 37.0064 12.1946C36.8901 12.525 36.6425 12.7646 36.3465 12.8332C36.1846 12.8807 36.071 13.0535 36.0714 13.2515C36.0282 14.0954 35.7894 14.9087 35.3814 15.6015C34.8729 16.3645 34.0967 16.8064 33.2774 16.7994C32.5627 16.8313 31.8469 16.8064 31.1349 16.7249C29.9713 16.6786 28.9803 15.7062 28.7222 14.3577C28.6561 14.1272 28.6108 13.889 28.5871 13.647C28.5871 13.2286 28.4809 12.9478 28.0611 12.8618C27.8577 12.8061 27.6858 12.6454 27.5925 12.4237C27.4991 12.2019 27.494 11.9422 27.5785 11.7155C27.8246 11.0678 27.5785 10.5233 27.5207 9.93868C27.3008 8.6237 27.5206 7.25876 28.1335 6.13294C28.251 5.84391 28.3073 5.52518 28.2976 5.20443C28.3265 4.63127 28.4761 4.22433 28.8332 4.16128C29.1999 4.17969 29.5388 3.92956 29.6873 3.53081C29.8176 3.11814 30.2132 3.14106 30.5414 3.33594ZM35.9604 10.85C35.9371 10.3273 35.8872 9.80665 35.8109 9.29105C35.4827 7.65752 33.9096 6.60292 32.6839 7.17608C32.4563 7.3123 32.1832 7.28344 31.9794 7.10155C31.4846 6.64853 30.7949 6.64853 30.3001 7.10155C29.1863 7.86772 28.5424 9.32609 28.645 10.85C28.6788 11.7441 28.7753 12.644 28.8621 13.5381C28.9086 14.9212 29.7462 16.0866 30.8889 16.358C31.7441 16.4794 32.6077 16.4948 33.4656 16.4039C34.8313 16.0944 35.502 15.3034 35.7095 13.6642C35.8205 12.7472 35.8736 11.8072 35.9604 10.85ZM36.221 10.9704C36.221 11.5092 36.168 12.0021 36.1439 12.495C36.5347 12.4205 36.7084 12.2428 36.7519 11.9218C36.79 11.4927 36.5646 11.0925 36.2162 10.9704H36.221ZM28.3265 12.6898L28.423 12.5924L28.3795 11.6238C28.3819 11.5818 28.3819 11.5397 28.3795 11.4977C28.3168 11.257 28.1383 11.1767 28.0466 11.3716C27.927 11.6218 27.8795 11.9117 27.9115 12.1969C27.926 12.3689 28.1721 12.5065 28.3217 12.6669L28.3265 12.6898Z" fill="#7140B8"/>
<path fill-rule="evenodd" clip-rule="evenodd" d="M35.9605 10.85C35.8784 11.8072 35.8253 12.7472 35.7047 13.6814C35.502 15.3207 34.8313 16.1116 33.4608 16.4211C32.6071 16.5722 31.7384 16.5568 30.8888 16.3753C29.7462 16.1023 28.9077 14.9385 28.8573 13.5554C28.7753 12.6612 28.6739 11.7614 28.645 10.8673C28.5412 9.34303 29.1854 7.884 30.3001 7.11882C30.7949 6.6658 31.4846 6.6658 31.9794 7.11882C32.1824 7.30329 32.4567 7.33232 32.6839 7.19335C33.9096 6.62019 35.4779 7.68052 35.8108 9.30827C35.8866 9.81819 35.9365 10.3331 35.9605 10.85ZM34.0303 12.1282C33.9843 12.4531 34.1567 12.7653 34.4259 12.8447C34.6479 12.8447 34.8554 12.5752 34.8747 12.2256C34.9162 11.8943 34.7418 11.5786 34.4694 11.492C34.2426 11.492 34.0303 11.7614 34.0303 12.1282ZM30.5655 12.1282C30.5655 11.7671 30.3628 11.4404 30.1312 11.4691C29.8127 11.5035 29.7452 11.8015 29.721 12.111C29.6822 12.4345 29.8618 12.7382 30.1312 12.8045C30.3532 12.8102 30.5655 12.4778 30.5655 12.1224V12.1282ZM32.1 14.438C32.3895 14.3814 32.5826 14.3625 32.8142 14.2932C32.9155 14.2554 32.9927 14.1168 33.0844 14.0223C32.9831 13.972 32.878 13.9361 32.7708 13.9153C32.322 13.9153 31.8732 13.8712 31.4244 13.8649C31.3505 13.8716 31.2775 13.8907 31.2073 13.9216C31.2459 14.0223 31.2701 14.1861 31.3279 14.205C31.6175 14.3121 31.8973 14.4065 32.1 14.438ZM29.943 10.1967C29.7363 10.3116 29.5349 10.4398 29.3399 10.5807C29.2868 10.6265 29.2964 10.7756 29.2771 10.8787C29.3592 10.8787 29.4701 10.8787 29.5184 10.8443C29.6183 10.7069 29.7636 10.6279 29.9165 10.6279C30.0694 10.6279 30.2147 10.7069 30.3146 10.8443C30.358 10.8959 30.4545 10.8845 30.5317 10.9017C30.5317 10.7985 30.5317 10.6437 30.5317 10.6036C30.3476 10.454 30.1559 10.318 29.9575 10.1967H29.943ZM34.6383 10.1967C34.4374 10.313 34.2424 10.4431 34.0544 10.5864C34.0061 10.6265 34.0206 10.7756 34.0061 10.873C34.0881 10.873 34.1943 10.873 34.2474 10.8386C34.3464 10.7014 34.491 10.6224 34.6431 10.6224C34.7952 10.6224 34.9397 10.7014 35.0388 10.8386C35.0822 10.8902 35.1836 10.8386 35.2559 10.873C35.2559 10.7698 35.2559 10.615 35.227 10.5807C35.0421 10.4393 34.8504 10.3111 34.6527 10.1967H34.6383ZM31.6706 12.8069C31.8732 12.937 32.0228 13.1177 32.1531 13.0888C32.2834 13.0599 32.5247 12.7635 32.5102 12.7057C32.3751 12.2069 32.0614 12.9081 31.8877 12.5249L31.6706 12.8069Z" fill="white"/>
<path fill-rule="evenodd" clip-rule="evenodd" d="M36.2161 10.9702C36.5588 11.0937 36.7808 11.4868 36.747 11.9102C36.7035 12.2426 36.5298 12.4203 36.139 12.4833C36.1631 12.0019 36.192 11.4918 36.2161 10.9702Z" fill="white"/>
<path fill-rule="evenodd" clip-rule="evenodd" d="M28.3218 12.667C28.1722 12.5066 27.9261 12.369 27.8923 12.1741C27.8603 11.8888 27.9078 11.599 28.0274 11.3488C28.1191 11.1539 28.2976 11.2342 28.3604 11.4749C28.3651 11.5167 28.3651 11.5591 28.3604 11.601C28.3604 11.922 28.3942 12.2487 28.4086 12.5696L28.3218 12.667Z" fill="white"/>
<path fill-rule="evenodd" clip-rule="evenodd" d="M34.0303 12.1281C34.0303 11.7613 34.2426 11.4919 34.4694 11.5091C34.7357 11.595 34.9084 11.9002 34.8747 12.2255C34.8747 12.5751 34.648 12.8617 34.426 12.8445C34.1567 12.7652 33.9843 12.453 34.0303 12.1281Z" fill="#7140B8"/>
<path fill-rule="evenodd" clip-rule="evenodd" d="M30.5655 12.1226C30.5655 12.4779 30.3532 12.8103 30.1312 12.7989C29.8638 12.73 29.6867 12.4271 29.7259 12.1053C29.7259 11.7958 29.8127 11.4978 30.1312 11.4577C30.3628 11.4348 30.5704 11.7615 30.5655 12.1226Z" fill="#7140B8"/>
<path fill-rule="evenodd" clip-rule="evenodd" d="M32.1001 14.4377C31.8829 14.3747 31.6175 14.3054 31.328 14.2046C31.2701 14.2046 31.246 14.0219 31.2073 13.9212C31.2776 13.8903 31.3505 13.8712 31.4245 13.8645C31.8733 13.8645 32.3221 13.8645 32.7708 13.9149C32.878 13.9357 32.9832 13.9716 33.0845 14.0219C32.9928 14.1165 32.9156 14.255 32.8094 14.2928C32.6212 14.3621 32.4041 14.4061 32.1001 14.4377Z" fill="#7140B8"/>
<path fill-rule="evenodd" clip-rule="evenodd" d="M29.9575 10.1965C30.153 10.3184 30.3431 10.4523 30.5269 10.5978C30.5703 10.6379 30.5269 10.7926 30.5269 10.8958C30.4497 10.8958 30.358 10.8958 30.3097 10.8385C30.2098 10.7011 30.0645 10.6221 29.9116 10.6221C29.7588 10.6221 29.6135 10.7011 29.5135 10.8385C29.4653 10.89 29.3543 10.8671 29.2723 10.8729C29.2723 10.7754 29.2723 10.6207 29.335 10.5749C29.5364 10.4352 29.7443 10.3088 29.9575 10.1965Z" fill="#7140B8"/>
<path fill-rule="evenodd" clip-rule="evenodd" d="M34.6528 10.1965C34.8556 10.3141 35.0522 10.4461 35.2415 10.592C35.2897 10.6264 35.2415 10.7811 35.2704 10.8843C35.198 10.8843 35.0967 10.8843 35.0533 10.8499C34.9543 10.7127 34.8097 10.6338 34.6576 10.6338C34.5055 10.6338 34.3609 10.7127 34.2619 10.8499C34.2088 10.9015 34.1027 10.8786 34.0206 10.89C34.0206 10.7869 34.0206 10.6379 34.0689 10.5978C34.2567 10.4505 34.4517 10.3166 34.6528 10.1965Z" fill="#7140B8"/>
<path fill-rule="evenodd" clip-rule="evenodd" d="M31.6851 12.8077L31.9022 12.5239C32.0759 12.9096 32.3847 12.2037 32.5247 12.7131C32.5247 12.764 32.3027 13.0697 32.1676 13.0916C32.0325 13.1134 31.8877 12.9387 31.6851 12.8077Z" fill="#7140B8"/>
<path d="M26.2179 23.2706L28.4183 19.7571L33.4465 21.0754V21.9064C33.4465 21.9064 39.4446 28.492 41.1287 29.4664C42.8128 30.4408 48.5069 30.4923 48.5069 30.4923L48.1788 31.5126H48.9897C49.7456 31.0706 50.6509 31.2058 51.2913 31.8564C51.2913 31.8564 51.0502 28.7843 52.2179 29.3689C53.3857 29.9535 56.6715 32.0513 57.6561 33.7593C57.6561 33.7593 58.1384 33.8224 56.9706 34.4471" stroke="white" stroke-width="1.75"/>
<path d="M51.2718 37.9028L50.7894 35.6618C49.2692 36.0974 48.0774 34.4466 48.0774 34.4466L47.7058 35.2204C47.7058 35.2204 40.6461 33.6614 39.1646 33.0711C37.6832 32.4807 33.9386 28.3425 33.9386 28.3425V39.0033" stroke="white" stroke-width="1.75"/>
<path d="M39.3963 40.1956C39.3963 40.1956 42.9334 40.8891 43.2229 43.3709C43.5125 45.8527 39.8451 53.7565 39.8451 53.7565H44.3231C44.3231 53.7565 45.5537 53.126 47.0737 49.9507" stroke="white" stroke-width="1.75"/>
<path d="M61.0048 43.709C61.0048 43.709 63.9627 45.3654 65.5215 47.9045L62.3609 49.0508C62.3609 49.0508 66.3034 53.103 64.209 59.8321C62.1146 66.5607 54.2296 67.6381 50.4082 62.2222C48.8963 59.9632 48.309 57.0222 48.8059 54.1978L48.1111 54.3926L42.3205 59.7114L26.5508 59.6371C26.5508 59.6371 25.1948 65.6721 18.9506 65.6721C13.4495 65.6721 11.4759 59.6371 11.4759 59.6371L2.27844 59.7571L4.37271 54.4385C4.37271 54.4385 7.26802 49.3661 10.7376 48.0535" stroke="white" stroke-width="1.75"/>
<path fill-rule="evenodd" clip-rule="evenodd" d="M16.118 59.637H22.1547C21.5234 60.8945 20.3656 61.6431 19.1339 61.5914C16.9383 61.6145 16.5233 60.6345 16.118 59.637Z" stroke="white" stroke-width="1.75"/>
<path d="M9.28505 45.7607H2.78509C2.61719 45.7607 2.48108 45.599 2.48108 45.3996V41.0551C2.49369 40.8669 2.62618 40.7221 2.78509 40.7227H9.13544" stroke="white" stroke-width="1.75"/>
<path d="M9.28501 40.1956H9.09199C8.55899 40.1956 8.12689 39.6824 8.12689 39.0493V24.5369C8.12689 23.9038 8.55899 23.3906 9.09199 23.3906H22.9315C23.4645 23.3906 23.8966 23.9038 23.8966 24.5369V36.4414" stroke="white" stroke-width="1.75"/>
<path d="M19.5441 40.6943H20.5092" stroke="white" stroke-width="1.75"/>
<path d="M19.4427 45.761H20.4078" stroke="white" stroke-width="1.75"/>
<path d="M24.2682 40.5393C24.5347 40.5393 24.7507 40.6933 24.7507 40.8832V43.4395" stroke="white" stroke-width="1.75"/>
<path d="M24.7846 44.8899V45.3369C24.7846 45.4171 24.7335 45.4937 24.6427 45.5498C24.5519 45.6058 24.4292 45.6365 24.3021 45.635" stroke="white" stroke-width="1.75"/>
<path d="M23.9113 45.1995H25.3589" stroke="white" stroke-width="1.75"/>
<path fill-rule="evenodd" clip-rule="evenodd" d="M55.5857 54.2035C55.076 54.8482 54.9967 55.8208 55.3937 56.5695C55.7907 57.3181 56.5633 57.6535 57.2729 57.3858C57.9829 57.1181 58.4508 56.315 58.4114 55.4314C58.3725 54.548 57.8354 53.8077 57.1059 53.6304L55.8222 49.3947C56.1403 49.3244 56.4636 49.2899 56.7873 49.2916C59.3362 49.2971 61.4853 51.5483 61.8085 54.5511C62.1322 57.5538 60.529 60.3753 58.0636 61.1426C55.5982 61.9099 53.0363 60.3846 52.0782 57.5797C51.1205 54.7744 52.0638 51.5604 54.283 50.0711L55.5857 54.2035Z" stroke="white" stroke-width="1.75"/>
<path fill-rule="evenodd" clip-rule="evenodd" d="M30.6137 39.2615V40.0983C30.6101 40.3985 30.7114 40.6869 30.8936 40.895C31.0701 41.1091 31.3121 41.2291 31.5644 41.2274H32.4137V45.2395C32.4137 46.6438 32.7273 47.6926 33.3788 48.3804C34.0302 49.0682 34.9567 49.4121 36.2113 49.4121C37.9872 49.4121 38.875 48.7091 38.875 47.3029C38.896 46.9763 38.8228 46.6509 38.6675 46.3801C38.4653 46.1342 38.1777 46.0154 37.8906 46.0592H37.5191C37.4084 46.0722 37.2968 46.0722 37.1861 46.0592C36.3175 46.0592 35.8832 45.6637 35.8832 44.8785V41.2274H37.7652C38.5517 41.2274 38.9426 40.6829 38.9426 39.6054C38.9401 39.3329 38.9109 39.0617 38.8557 38.7972C38.7592 38.2871 38.3732 38.0349 37.741 38.0349H35.8832V36.4645C35.9359 35.898 35.7773 35.3326 35.4489 34.917C35.0112 34.5704 34.4861 34.4145 33.9627 34.4756C33.6992 34.4737 33.436 34.4986 33.1761 34.5502C32.946 34.5696 32.7362 34.7132 32.6067 34.9399C32.4672 35.214 32.4 35.5314 32.4137 35.8512V38.1095H31.5451C31.2965 38.1011 31.0565 38.2177 30.884 38.4304C30.7038 38.644 30.606 38.9364 30.6137 39.2386V39.2615ZM25.1802 49.4752L25.9234 49.521L26.7485 49.4752C27.3929 49.4772 28.0266 49.2797 28.587 48.902C29.0148 48.5884 29.2674 48.0256 29.2481 47.429C29.2616 47.0877 29.1912 46.7491 29.0455 46.4546C28.8945 46.1854 28.6315 46.0358 28.3603 46.0649C28.1575 46.0551 27.9549 46.0881 27.7619 46.1623C27.2514 46.3313 26.7235 46.4142 26.1936 46.4088C25.4937 46.4101 24.8083 46.1712 24.22 45.721C23.6928 45.3935 23.2944 44.8339 23.1101 44.162H28.4423C28.8553 44.1924 29.2626 44.0346 29.5811 43.7207C29.8739 43.3957 30.0473 42.9468 30.0636 42.4712C30.0859 42.316 30.094 42.1584 30.0878 42.0012C30.0986 40.7477 29.7069 39.5364 28.9924 38.6138C28.5048 38.0102 27.9118 37.5407 27.2552 37.2383C26.5429 36.8923 25.7809 36.7132 25.0113 36.7109C23.7371 36.6565 22.4922 37.1719 21.5225 38.1553C20.5475 39.2506 19.9812 40.763 19.9494 42.3566C19.9362 42.6181 19.9362 42.8803 19.9494 43.1418C19.8945 44.7589 20.3983 46.3325 21.344 47.4978C22.3902 48.681 23.7612 49.3751 25.2044 49.4523L25.1802 49.4752ZM23.858 40.2416C24.1794 39.9358 24.5802 39.7717 24.992 39.7773C25.4666 39.761 25.9276 39.9668 26.2756 40.3505C26.5926 40.6714 26.77 41.1456 26.7582 41.6401L23.1825 41.5942C23.2804 41.073 23.5214 40.6052 23.8677 40.2645L23.858 40.2416ZM18.4004 38.0063C17.2909 37.1172 15.9744 36.6642 14.6365 36.7109C12.9701 36.7109 11.6608 37.2211 10.7085 38.2413C9.71432 39.3635 9.18502 40.9477 9.26089 42.5744C9.26089 44.4944 9.74344 45.9617 10.6651 46.9934C11.0829 47.4489 11.5759 47.7964 12.1128 48.0136C12.6858 48.2552 13.2902 48.3755 13.8982 48.369C14.2524 48.3827 14.6068 48.35 14.955 48.2715C15.4086 48.1913 15.6643 48.1512 15.7174 48.1512C15.8863 48.1512 15.9684 48.2085 15.9684 48.3231C15.9684 49.5688 15.1545 50.1897 13.5266 50.1859C12.8052 50.1702 12.0916 50.0054 11.4179 49.6987C11.2234 49.5942 11.0136 49.5358 10.8002 49.5267C10.5481 49.5105 10.309 49.6603 10.1778 49.9165C10.0351 50.2146 9.96489 50.5539 9.97505 50.8966C9.97505 52.5969 11.3182 53.4491 14.0044 53.4529C15.3804 53.5444 16.7417 53.0775 17.8648 52.1289C18.81 51.2341 19.336 49.8546 19.2787 48.4206V39.8232C19.2904 39.4632 19.2186 39.1063 19.0712 38.7915C18.896 38.4656 18.6639 38.188 18.3908 37.9776L18.4004 38.0063ZM15.9201 43.8296C15.9201 44.6148 15.7078 45.0618 15.2783 45.1765C15.0497 45.2556 14.8115 45.2885 14.5738 45.2739C14.0631 45.3087 13.5688 45.0535 13.2419 44.5861C12.8947 44.008 12.7245 43.3062 12.7594 42.5973C12.7238 41.9005 12.9098 41.2132 13.2806 40.6715C13.6767 40.1948 14.2285 39.9477 14.7909 39.9951C14.9841 39.9938 15.1768 40.0188 15.3651 40.0697C15.7271 40.1671 15.9056 40.5969 15.9056 41.3478L15.9201 43.8296Z" fill="white"/>
<path fill-rule="evenodd" clip-rule="evenodd" d="M60.4645 48.1739V35.0601C60.5136 34.5006 60.3513 33.9439 60.0202 33.5412C59.5768 33.196 59.0477 33.0404 58.5194 33.0999L58.0659 33.0713C57.7793 33.0563 57.4964 33.1528 57.2603 33.3463C57.0168 33.6349 56.9027 34.0427 56.9514 34.4468V47.5607C56.9018 48.1202 57.0646 48.6769 57.3953 49.0795C57.8382 49.4214 58.365 49.5768 58.8914 49.5209H59.3737C59.6552 49.5492 59.9362 49.4622 60.17 49.2744C60.4181 48.9891 60.5364 48.5801 60.4886 48.1739H60.4645ZM56.3291 48.1739V35.0601C56.3805 34.5003 56.2173 33.9426 55.8848 33.5412C55.4428 33.1965 54.9155 33.0408 54.3891 33.0999L53.9355 33.0713C53.6471 33.0554 53.3623 33.1521 53.1249 33.3463C52.8833 33.6363 52.7692 34.0429 52.816 34.4468V47.5607C52.7664 48.1202 52.9292 48.6769 53.2598 49.0795C53.7046 49.4214 54.2328 49.5768 54.7606 49.5209H55.2142C55.4957 49.5506 55.7772 49.4635 56.0104 49.2744C56.2586 48.9891 56.3768 48.5801 56.3291 48.1739ZM50.9197 38.1666C50.0668 37.4024 48.8411 37.0203 47.2424 37.0203C46.238 36.9735 45.235 37.1484 44.2844 37.5361C43.9697 37.6726 43.6892 37.9014 43.4689 38.201C43.2977 38.4945 43.2144 38.8477 43.2324 39.2041C43.2229 39.5559 43.3019 39.9031 43.4592 40.2013C43.5972 40.4619 43.8421 40.6149 44.101 40.6025C44.3035 40.5874 44.504 40.5471 44.6994 40.4822C45.3672 40.2698 46.0542 40.1543 46.7454 40.1383C48.1126 40.1383 48.7947 40.5796 48.7914 41.4623V41.6342L46.0939 41.9838C45.14 42.033 44.2225 42.4336 43.4689 43.1302C42.8787 43.808 42.5683 44.7591 42.6196 45.7323C42.5691 46.9185 43.0427 48.0502 43.8694 48.7184C44.7058 49.3948 45.8881 49.7329 47.4161 49.7329C49.0567 49.7329 50.3112 49.4177 51.1993 48.7758C51.5031 48.5913 51.767 48.3266 51.9715 48.002C52.1357 47.7173 52.2201 47.3783 52.2126 47.0333V41.5196C52.2762 40.2164 51.792 38.9606 50.9197 38.1666ZM48.2171 46.5863C47.948 46.6438 47.6751 46.6727 47.4016 46.6723C46.4655 46.6723 45.9974 46.3055 45.9974 45.5718C45.9974 44.9471 46.4365 44.6032 47.3196 44.5402L48.8058 44.3911V46.3571C48.624 46.4783 48.4241 46.5561 48.2171 46.5863Z" fill="white"/>
</svg>
