<svg width="88" height="88" viewBox="0 0 88 88" fill="none" xmlns="http://www.w3.org/2000/svg">
<path d="M44 0C19.69 0 0 20.2014 0 45.1165C0 65.054 12.606 81.9612 30.085 87.9222C32.285 88.3469 33.0917 86.9504 33.0917 85.7528C33.0917 84.6815 33.055 81.8426 33.0367 78.0816C20.7973 80.8019 18.216 72.0288 18.216 72.0288C16.214 66.8216 13.321 65.4289 13.321 65.4289C9.33533 62.6321 13.629 62.6895 13.629 62.6895C18.0473 63.0032 20.3683 67.3381 20.3683 67.3381C24.2917 74.2365 30.668 72.2431 33.1833 71.0915C33.5793 68.1722 34.7123 66.1865 35.97 65.0578C26.1983 63.9291 15.928 60.0495 15.928 42.7635C15.928 37.8394 17.633 33.8144 20.4563 30.658C19.9613 29.5178 18.4763 24.9304 20.8413 18.7169C20.8413 18.7169 24.5263 17.5079 32.9413 23.3426C36.4613 22.3402 40.2013 21.8428 43.9413 21.8198C47.6813 21.8428 51.4213 22.3402 54.9413 23.3426C63.3013 17.5079 66.9863 18.7169 66.9863 18.7169C69.3513 24.9304 67.8663 29.5178 67.4263 30.658C70.2313 33.8144 71.9363 37.8394 71.9363 42.7635C71.9363 60.0955 61.6513 63.91 51.8613 65.0195C53.4013 66.374 54.8313 69.1402 54.8313 73.3679C54.8313 79.4054 54.7763 84.2568 54.7763 85.7222C54.7763 86.9044 55.5463 88.3162 57.8013 87.8648C75.405 81.9421 88 65.0234 88 45.1165C88 20.2014 68.299 0 44 0V0Z" fill="#2DC0FF"/>
</svg>
