<svg width="86" height="85" viewBox="0 0 86 85" fill="none" xmlns="http://www.w3.org/2000/svg">
<path d="M50.5586 42.5C50.5586 46.6257 47.1743 49.9707 43 49.9707C38.8257 49.9707 35.4414 46.6257 35.4414 42.5C35.4414 38.3743 38.8257 35.0293 43 35.0293C47.1743 35.0293 50.5586 38.3743 50.5586 42.5Z" fill="#2DC0FF"/>
<path d="M55.7656 19.9219H30.2344C24.677 19.9219 20.1562 24.39 20.1562 29.8828V55.1172C20.1562 60.61 24.677 65.0781 30.2344 65.0781H55.7656C61.323 65.0781 65.8438 60.61 65.8438 55.1172V29.8828C65.8438 24.39 61.323 19.9219 55.7656 19.9219ZM43 54.9512C36.0536 54.9512 30.4023 49.3657 30.4023 42.5C30.4023 35.6343 36.0536 30.0488 43 30.0488C49.9464 30.0488 55.5977 35.6343 55.5977 42.5C55.5977 49.3657 49.9464 54.9512 43 54.9512ZM57.4453 30.7129C56.0537 30.7129 54.9258 29.5981 54.9258 28.2227C54.9258 26.8472 56.0537 25.7324 57.4453 25.7324C58.837 25.7324 59.9648 26.8472 59.9648 28.2227C59.9648 29.5981 58.837 30.7129 57.4453 30.7129Z" fill="#2DC0FF"/>
<path d="M63.3242 0H22.6758C10.1726 0 0 10.0543 0 22.4121V62.5879C0 74.9457 10.1726 85 22.6758 85H63.3242C75.8274 85 86 74.9457 86 62.5879V22.4121C86 10.0543 75.8274 0 63.3242 0ZM70.8828 55.1172C70.8828 63.3557 64.1011 70.0586 55.7656 70.0586H30.2344C21.8989 70.0586 15.1172 63.3557 15.1172 55.1172V29.8828C15.1172 21.6443 21.8989 14.9414 30.2344 14.9414H55.7656C64.1011 14.9414 70.8828 21.6443 70.8828 29.8828V55.1172Z" fill="#2DC0FF"/>
</svg>
