<svg width="88" height="88" viewBox="0 0 88 88" fill="none" xmlns="http://www.w3.org/2000/svg">
<g clip-path="url(#clip0)">
<path d="M0 44C0 68.3005 19.6995 88 44 88C68.3005 88 88 68.3005 88 44C88 19.6995 68.3005 0 44 0C19.6995 0 0 19.6995 0 44Z" fill="#F7DF1E"/>
<path d="M57.9431 67.8165C59.7157 70.7107 62.0218 72.8381 66.1006 72.8381C69.527 72.8381 71.7158 71.1256 71.7158 68.7594C71.7158 65.9238 69.4669 64.9195 65.6955 63.2698L63.6282 62.3829C57.661 59.8406 53.6968 56.6559 53.6968 49.9232C53.6968 43.7213 58.4222 39 65.8072 39C71.0649 39 74.8447 40.8298 77.5685 45.621L71.1291 49.7556C69.7114 47.2133 68.1818 46.2118 65.8072 46.2118C63.3851 46.2118 61.85 47.7483 61.85 49.7556C61.85 52.2363 63.3865 53.2406 66.9345 54.7771L69.0018 55.6627C76.0278 58.6757 79.9948 61.7473 79.9948 68.6532C79.9948 76.0983 74.1463 80.177 66.2919 80.177C58.6122 80.177 53.6507 76.5173 51.223 71.7206L57.9431 67.8165ZM28.7313 68.5331C30.0304 70.8378 31.2121 72.7864 34.0532 72.7864C36.77 72.7864 38.4839 71.7234 38.4839 67.5902V39.4721H46.7531V67.702C46.7531 76.2645 41.733 80.1617 34.4052 80.1617C27.7843 80.1617 23.95 76.7352 22 72.6083L28.7313 68.5331Z" fill="#FEFEFE"/>
</g>
<defs>
<clipPath id="clip0">
<rect width="88" height="88" fill="white"/>
</clipPath>
</defs>
</svg>
