<svg width="88" height="88" viewBox="0 0 88 88" fill="none" xmlns="http://www.w3.org/2000/svg">
<path d="M2.85761 88H14.2978C15.8761 88 17.1554 86.5993 17.1554 84.8715V30.13C17.1554 28.402 15.8761 27.0017 14.2978 27.0017H2.85761C1.27916 27.0017 0 28.402 0 30.13V84.8715C0 86.5991 1.27916 88 2.85761 88Z" fill="#2DC0FF"/>
<path d="M2.85761 17.3779H14.2978C15.8761 17.3779 17.1554 15.9774 17.1554 14.2496V3.12831C17.1554 1.4005 15.8761 0 14.2978 0H2.85761C1.27916 0 0 1.4005 0 3.12831V14.2496C0 15.9774 1.27916 17.3779 2.85761 17.3779Z" fill="#2DC0FF"/>
<path d="M83.6958 33.351C82.0882 31.0345 79.7178 29.1295 76.5835 27.6362C73.4492 26.1441 69.9895 25.3975 66.2042 25.3975C58.52 25.3975 52.0088 28.6078 46.6707 35.0298C45.6085 36.3077 44.8363 36.0283 44.8363 34.3003V30.13C44.8363 28.402 43.5568 27.0017 41.9785 27.0017H31.7592C30.1808 27.0017 28.9016 28.402 28.9016 30.13V84.8715C28.9016 86.5993 30.1809 88 31.7592 88H43.1994C44.7778 88 46.057 86.5993 46.057 84.8715V65.8338C46.057 57.9027 46.4945 52.4664 47.3694 49.5258C48.2441 46.5852 49.8625 44.2239 52.2231 42.4416C54.584 40.6592 57.2496 39.7676 60.2212 39.7676C62.5411 39.7676 64.5255 40.3915 66.1741 41.6396C67.8226 42.8874 69.0133 44.6354 69.7459 46.886C70.4788 49.1363 70.845 54.0932 70.845 61.7573V84.8713C70.845 86.5991 72.1242 87.9998 73.7025 87.9998H85.1426C86.7209 87.9998 88.0001 86.5991 88.0001 84.8713V53.8703C88.0001 48.3901 87.6846 44.1791 87.0543 41.2385C86.424 38.2979 85.3044 35.6688 83.6958 33.351Z" fill="#2DC0FF"/>
</svg>
