<svg width="86" height="84" viewBox="0 0 86 84" fill="none" xmlns="http://www.w3.org/2000/svg">
<path d="M57.0073 42.4305L86 60.333V23.772L57.0073 42.4305Z" fill="#2DC0FF"/>
<path d="M0 23.772V60.333L28.9928 42.4305L0 23.772Z" fill="#2DC0FF"/>
<path d="M80.625 13.125H5.37501C2.69288 13.125 0.56438 15.078 0.161255 17.5928L43 45.1605L85.8388 17.5928C85.4356 15.078 83.3071 13.125 80.625 13.125Z" fill="#2DC0FF"/>
<path d="M52.0838 45.6014L44.4782 50.4944C44.0267 50.7832 43.516 50.9249 43 50.9249C42.4841 50.9249 41.9734 50.7832 41.5219 50.4944L33.9163 45.5962L0.172058 66.4439C0.585933 68.9377 2.70368 70.8749 5.37506 70.8749H80.625C83.2964 70.8749 85.4142 68.9377 85.828 66.4439L52.0838 45.6014Z" fill="#2DC0FF"/>
</svg>
