<svg width="54" height="49" viewBox="0 0 54 49" fill="none" xmlns="http://www.w3.org/2000/svg">
<rect width="52.1979" height="48.1032" rx="24.0516" transform="matrix(-1 0 0 1 53.0162 0.0959473)" fill="#4FBFFF"/>
<path d="M25.0177 6.02139C6.00534 11.7867 11.5739 22.9874 16.7348 27.8671L17.3983 27.885L41.0875 15.7722C45.7124 6.08839 32.3013 5.23674 25.0177 6.02139Z" fill="black"/>
<path d="M23.8612 21.0344C13.2696 19.1846 15.1059 24.0578 17.3479 26.7257L17.4012 30.1494L17.5685 40.9098L31.4379 41.2834L31.3086 32.9686C41.3475 33.2391 42.3892 23.8151 41.6553 19.0693C41.0661 15.1422 36.5208 14.3679 34.3219 14.4716C28.4917 13.1412 24.9188 18.2924 23.8612 21.0344Z" fill="#FFC58F"/>
</svg>
