<svg class="message-icon" width="458" height="288" viewBox="0 0 458 288" fill="none" xmlns="http://www.w3.org/2000/svg">
<ellipse rx="57.431" ry="55.4564" transform="matrix(0.998843 0.048082 -0.0467283 0.998908 396.477 94.9116)" fill="#E9F4FF"/>
<ellipse rx="45.1244" ry="42.1164" transform="matrix(0.998843 0.048082 -0.0467283 0.998908 315.892 107.441)" fill="#E9F4FF"/>
<ellipse rx="45.1244" ry="42.1164" transform="matrix(0.998843 0.048082 -0.0467283 0.998908 353.596 45.9124)" fill="#E9F4FF"/>
<ellipse cx="195.644" cy="190.837" rx="89.8626" ry="91.648" fill="#E9F4FF"/>
<ellipse cx="70.6064" cy="217.922" rx="70.6064" ry="69.6021" fill="#E9F4FF"/>
<ellipse cx="125.037" cy="113.362" rx="70.6064" ry="69.6021" fill="#E9F4FF"/>
<path d="M153.46 228.077C157.964 217.44 167.039 195.912 167.309 194.891L180.821 206.059L153.46 228.077Z" fill="#DCDCDC"/>
<path d="M308.109 107.401L167.428 194.994L153.225 228.077L140.374 170.417L308.109 107.401Z" fill="#F8F8F8"/>
<path d="M231.928 246.782L167.14 195.265L307.514 107.401L231.928 246.782Z" fill="white"/>
<path d="M140.161 170.756L90.4104 133.711L308.704 106.798L140.161 170.756Z" fill="white"/>
</svg>
