<svg width="83" height="80" viewBox="0 0 83 80" fill="none" xmlns="http://www.w3.org/2000/svg">
<circle cx="43" cy="40" r="40" fill="#494A4B"/>
<path d="M69.0001 39.4618C69.0001 36.1228 64.7854 32.9584 58.3234 30.9961C59.8146 24.462 59.1519 19.2634 56.2316 17.599C55.5584 17.2086 54.7714 17.0237 53.9119 17.0237V19.3148C54.3882 19.3148 54.7714 19.4072 55.0924 19.5819C56.5008 20.3832 57.1118 23.4346 56.6354 27.3592C56.5215 28.3249 56.3351 29.342 56.1073 30.3797C54.0776 29.8866 51.8615 29.5064 49.5314 29.2598C48.1334 27.3592 46.6836 25.6332 45.2235 24.1229C48.5994 21.01 51.7683 19.3045 53.9222 19.3045V17.0134C51.0744 17.0134 47.3464 19.0271 43.5769 22.5202C39.8074 19.0476 36.0794 17.0545 33.2315 17.0545V19.3456C35.3752 19.3456 38.5544 21.0408 41.9303 24.1332C40.4805 25.6435 39.0307 27.3592 37.6534 29.2598C35.313 29.5064 33.0969 29.8866 31.0672 30.39C30.829 29.3626 30.653 28.366 30.5287 27.4106C30.042 23.4859 30.6426 20.4346 32.0406 19.623C32.3513 19.4381 32.7552 19.3559 33.2315 19.3559V17.0648C32.3617 17.0648 31.5746 17.2497 30.8912 17.6401C27.9812 19.3045 27.3288 24.4928 28.8304 31.0064C22.3891 32.979 18.1951 36.133 18.1951 39.4618C18.1951 42.8008 22.4098 45.9651 28.8718 47.9274C27.3806 54.4616 28.0433 59.6601 30.9637 61.3245C31.6368 61.7149 32.4238 61.8998 33.2937 61.8998C36.1415 61.8998 39.8696 59.8862 43.639 56.3931C47.4085 59.8656 51.1366 61.8588 53.9844 61.8588C54.8543 61.8588 55.6413 61.6738 56.3248 61.2834C59.2347 59.6191 59.8871 54.4308 58.3855 47.9171C64.8061 45.9548 69.0001 42.7905 69.0001 39.4618ZM55.517 32.6091C55.1339 33.9344 54.6575 35.3009 54.119 36.6673C53.6944 35.8454 53.2491 35.0235 52.7624 34.2016C52.286 33.3797 51.7786 32.5783 51.2712 31.7975C52.7417 32.0132 54.1604 32.2804 55.517 32.6091ZM50.7741 43.5508C49.9664 44.9377 49.1379 46.2528 48.2784 47.4754C46.7354 47.6089 45.1717 47.6808 43.5976 47.6808C42.0339 47.6808 40.4702 47.6089 38.9375 47.4856C38.078 46.2631 37.2392 44.9583 36.4315 43.5816C35.6444 42.2357 34.9299 40.8693 34.2775 39.4926C34.9195 38.1159 35.6444 36.7392 36.4211 35.3933C37.2289 34.0064 38.0573 32.6913 38.9168 31.4687C40.4598 31.3352 42.0235 31.2632 43.5976 31.2632C45.1613 31.2632 46.725 31.3352 48.2577 31.4585C49.1172 32.681 49.956 33.9858 50.7638 35.3625C51.5508 36.7084 52.2653 38.0748 52.9177 39.4515C52.2653 40.8282 51.5508 42.2049 50.7741 43.5508ZM54.119 42.2152C54.6782 43.5919 55.1546 44.9686 55.5481 46.3042C54.1915 46.6329 52.7624 46.9103 51.2815 47.1261C51.789 46.335 52.2964 45.5233 52.7728 44.6912C53.2491 43.8693 53.6944 43.0371 54.119 42.2152ZM43.6183 53.1774C42.6552 52.1911 41.6922 51.0918 40.7394 49.8897C41.6714 49.9308 42.6242 49.9616 43.5873 49.9616C44.5607 49.9616 45.5238 49.9411 46.4661 49.8897C45.5341 51.0918 44.571 52.1911 43.6183 53.1774ZM35.9137 47.1261C34.4432 46.9103 33.0244 46.6432 31.6678 46.3144C32.051 44.9891 32.5274 43.6227 33.0659 42.2563C33.4904 43.0782 33.9357 43.9001 34.4225 44.722C34.9092 45.5439 35.4062 46.3452 35.9137 47.1261ZM43.5665 25.7462C44.5296 26.7325 45.4927 27.8318 46.4454 29.0338C45.5134 28.9927 44.5607 28.9619 43.5976 28.9619C42.6242 28.9619 41.6611 28.9825 40.7187 29.0338C41.6507 27.8318 42.6138 26.7325 43.5665 25.7462ZM35.9033 31.7975C35.3959 32.5886 34.8885 33.4002 34.4121 34.2324C33.9357 35.0543 33.4904 35.8762 33.0659 36.6981C32.5066 35.3214 32.0303 33.9447 31.6368 32.6091C32.9934 32.2906 34.4225 32.0132 35.9033 31.7975ZM26.5314 44.6603C22.8655 43.109 20.494 41.0748 20.494 39.4618C20.494 37.8488 22.8655 35.8043 26.5314 34.2632C27.422 33.8831 28.3954 33.544 29.3999 33.2256C29.9902 35.2392 30.7669 37.3351 31.73 39.4823C30.7772 41.6193 30.0109 43.7049 29.431 45.7083C28.4058 45.3898 27.4324 45.0405 26.5314 44.6603ZM32.1028 59.3417C30.6944 58.5403 30.0834 55.489 30.5598 51.5644C30.6737 50.5986 30.8601 49.5815 31.0879 48.5438C33.1176 49.037 35.3338 49.4171 37.6638 49.6637C39.0618 51.5644 40.5116 53.2904 41.9718 54.8006C38.5958 57.9136 35.427 59.6191 33.273 59.6191C32.807 59.6088 32.4134 59.5163 32.1028 59.3417ZM56.6665 51.513C57.1532 55.4376 56.5526 58.4889 55.1546 59.3006C54.8439 59.4855 54.44 59.5677 53.9637 59.5677C51.82 59.5677 48.6408 57.8725 45.2649 54.7801C46.7147 53.2698 48.1645 51.5541 49.5418 49.6534C51.8822 49.4069 54.0983 49.0267 56.128 48.5233C56.3662 49.561 56.5526 50.5575 56.6665 51.513ZM60.6534 44.6603C59.7629 45.0405 58.7894 45.3795 57.7849 45.698C57.1946 43.6843 56.418 41.5885 55.4549 39.4412C56.4076 37.3043 57.1739 35.2187 57.7539 33.2153C58.7791 33.5338 59.7525 33.8831 60.6638 34.2632C64.3297 35.8146 66.7012 37.8488 66.7012 39.4618C66.6908 41.0748 64.3194 43.1193 60.6534 44.6603Z" fill="#61DAFB"/>
<path d="M43.5873 44.1571C46.201 44.1571 48.3198 42.055 48.3198 39.462C48.3198 36.8689 46.201 34.7668 43.5873 34.7668C40.9736 34.7668 38.8547 36.8689 38.8547 39.462C38.8547 42.055 40.9736 44.1571 43.5873 44.1571Z" fill="#61DAFB"/>
</svg>
