<svg width="103" height="103" viewBox="0 0 103 103" fill="none" xmlns="http://www.w3.org/2000/svg">
<circle cx="51.5" cy="51.5" r="51.5" fill="#F4F4F4"/>
<path d="M62.1879 63.3463C64.3283 63.114 65.9521 61.178 65.8782 58.8548C65.8044 56.5316 63.9593 54.673 61.745 54.673H61.5974C59.3094 54.7505 57.538 56.7639 57.6118 59.1645C57.6856 60.3261 58.1285 61.3329 58.7927 62.0298C56.2833 67.2183 52.4453 71.0129 46.6883 74.1879C42.7765 76.3563 38.7171 77.1307 34.6577 76.5886C31.3364 76.1239 28.7531 74.5751 27.1293 72.0196C24.7675 68.225 24.5461 64.1207 26.5389 60.0164C27.9412 57.0737 30.1554 54.9053 31.5578 53.8212C31.2626 52.8145 30.8197 51.1108 30.5983 49.8717C19.8962 58.0029 21.0033 68.9994 24.2508 74.1879C26.6865 78.0599 31.6316 80.4606 37.0933 80.4606C38.5695 80.4606 40.0456 80.3057 41.5218 79.9185C50.9691 77.9825 58.1285 72.097 62.1879 63.3463ZM75.178 53.7437C69.5686 46.8516 61.3022 43.057 51.8548 43.057H50.6739C50.0096 41.6631 48.6073 40.7338 47.0573 40.7338H46.9097C44.6217 40.8112 42.8503 42.8247 42.9241 45.2253C42.9979 47.5485 44.8431 49.4071 47.0573 49.4071H47.205C48.8287 49.3296 50.2311 48.2455 50.8215 46.7741H52.1501C57.7594 46.7741 63.0736 48.4778 67.871 51.8077C71.5614 54.3633 74.2185 57.6932 75.6946 61.7201C76.9494 64.9726 76.8756 68.1476 75.547 70.858C73.4804 74.9623 70.0115 77.2081 65.4354 77.2081C62.4831 77.2081 59.6784 76.2788 58.2023 75.5819C57.3904 76.3563 55.9142 77.5953 54.8809 78.3697C58.0547 79.9185 61.3022 80.7703 64.4021 80.7703C71.4876 80.7703 76.7279 76.666 78.7207 72.5617C80.8612 68.0702 80.7135 60.3261 75.178 53.7437ZM37.6838 64.6628C37.7576 66.986 39.6028 68.8446 41.817 68.8446H41.9646C44.2527 68.7671 46.024 66.7537 45.9502 64.353C45.8764 62.0298 44.0312 60.1713 41.817 60.1713H41.6694C41.5218 60.1713 41.3004 60.1713 41.1528 60.2487C38.1266 54.9828 36.8719 49.2522 37.3148 43.057C37.61 38.4106 39.0861 34.3837 41.6694 31.0538C43.8098 28.1885 47.943 26.7946 50.7477 26.7171C58.5713 26.5622 61.8926 36.7843 62.1141 40.8887C63.0736 41.121 64.6973 41.6631 65.8044 42.0503C64.9187 29.505 57.538 23 50.4525 23C43.8098 23 37.6838 28.0336 35.2482 35.4679C31.853 45.3802 34.0672 54.9053 38.2005 62.417C37.8314 62.9591 37.61 63.811 37.6838 64.6628Z" fill="#764ABC"/>
</svg>
