<svg width="80" height="80" viewBox="0 0 80 80" fill="none" xmlns="http://www.w3.org/2000/svg">
<path fill-rule="evenodd" clip-rule="evenodd" d="M40 0C62.09 0 80 17.91 80 40C80 62.09 62.09 80 40 80C17.91 80 0 62.09 0 40C0 17.91 17.91 0 40 0ZM32.05 53.325C32.635 55.475 32.57 57.485 31.97 59.3L31.75 59.9C31.67 60.1 31.58 60.3 31.49 60.485C31.025 61.45 30.405 62.35 29.64 63.185C27.315 65.715 24.07 66.675 22.675 65.865C21.175 64.995 21.925 61.415 24.625 58.565C27.525 55.505 31.69 53.535 31.69 53.535V53.525L32.05 53.325V53.325ZM65.09 17.125C63.28 10.015 51.5 7.675 40.35 11.64C33.715 14 26.535 17.7 21.37 22.53C15.23 28.27 14.25 33.27 14.65 35.36C16.075 42.73 26.175 47.55 30.33 51.125V51.145C29.105 51.745 20.145 56.245 18.045 60.895C15.795 65.795 18.395 69.295 20.095 69.745C25.345 71.195 30.745 68.545 33.645 64.245C36.445 60.045 36.195 54.645 34.995 51.995C36.645 51.545 38.595 51.345 41.095 51.645C48.095 52.445 49.495 56.845 49.195 58.645C48.895 60.445 47.445 61.495 46.945 61.795C46.445 62.095 46.295 62.195 46.345 62.395C46.395 62.695 46.645 62.695 47.045 62.645C47.595 62.545 50.695 61.145 50.845 57.745C50.995 53.445 46.895 48.645 39.595 48.745C36.595 48.795 34.695 49.045 33.345 49.595C33.245 49.445 33.145 49.345 32.995 49.245C28.495 44.395 20.145 40.995 20.495 34.545C20.595 32.195 21.445 25.995 36.495 18.495C48.845 12.345 58.695 14.045 60.395 17.795C62.845 23.145 55.145 33.095 42.295 34.545C37.395 35.095 34.845 33.195 34.195 32.495C33.495 31.745 33.395 31.695 33.145 31.845C32.745 32.045 32.995 32.695 33.145 33.095C33.545 34.095 35.095 35.845 37.795 36.745C40.145 37.495 45.895 37.945 52.795 35.245C60.545 32.245 66.595 23.895 64.845 16.895L65.09 17.125Z" fill="#CC6699"/>
</svg>
