<svg class="sitting" width="385" height="369" viewBox="0 0 385 369" fill="none" xmlns="http://www.w3.org/2000/svg">
<g class="browser">
<g filter="url(#filter0_d)">
<rect x="4" width="377" height="246.745" rx="20" fill="white"/>
</g>
<rect x="307.581" y="98.9231" width="56.5209" height="142.202" fill="#F2F2F2"/>
<rect x="24.9768" y="173.115" width="275.612" height="73.6301" fill="#F2F2F2"/>
<rect x="24.9768" y="147.823" width="275.612" height="13.4895" fill="#F2F2F2"/>
<rect x="91.4034" y="118.196" width="209.185" height="13.4895" fill="#F2F2F2"/>
<ellipse cx="202.114" cy="42.7166" rx="23.3076" ry="22.4825" fill="#FDFFA5"/>
<path d="M4 39.9062H381V62.3887H4V39.9062Z" fill="#CCD6EF"/>
<path d="M4 62.3889H381V86.5576H4V62.3889Z" fill="#FFE7C2"/>
<path d="M42.8533 62.5904C27.6286 64.3157 10.6188 63.3006 4 62.5748V61.9509H381V63.3662C369.105 63.8757 357.752 63.1534 352.532 62.5904C337.416 64.3034 320.54 63.3149 313.822 62.5904C298.706 64.3034 281.831 63.3149 275.112 62.5904C259.996 64.3034 243.121 63.3149 236.402 62.5904C221.287 64.3034 204.411 63.3149 197.693 62.5904C182.577 64.3034 165.701 63.3149 158.983 62.5904C143.867 64.3034 126.991 63.3149 120.273 62.5904C105.157 64.3034 88.2815 63.3149 81.5632 62.5904C66.4473 64.3034 49.5717 63.3149 42.8533 62.5904Z" fill="#CCD6EF"/>
<ellipse cx="17.8348" cy="12.0119" rx="3.34641" ry="3.58103" fill="#FF6161"/>
<ellipse cx="27.9901" cy="12.1589" rx="3.34641" ry="3.58103" fill="#FFE661"/>
<ellipse cx="38.4281" cy="12.248" rx="3.34641" ry="3.58103" fill="#61FF67"/>
<rect width="72.9315" height="68.8345" rx="34.4173" transform="matrix(-1 0 0 1 83.6637 64.5984)" fill="#BFE8FF"/>
<path d="M44.5443 73.0734C17.9835 81.3176 25.7695 97.347 32.9827 104.331L33.9097 104.357L67.0017 87.0311C73.4588 73.1755 54.7205 71.9528 44.5443 73.0734Z" fill="#847777"/>
<path d="M42.928 94.5614C28.1294 91.9144 30.695 98.8879 33.8276 102.706L33.902 107.605L34.1358 123.003L53.5144 123.537L53.3337 111.639C67.3601 112.026 68.8157 98.5406 67.7901 91.7494C66.9669 86.1299 60.6163 85.0218 57.5438 85.1702C49.3978 83.2664 44.4058 90.6378 42.928 94.5614Z" fill="#FFD4AC"/>
<path d="M103.103 107.426H100.388V101.88H95.2987V107.426H92.5741V94.5762H95.2987V99.6123H100.388V94.5762H103.103V107.426ZM106.03 95.0596C106.03 94.1865 106.516 93.75 107.489 93.75C108.462 93.75 108.948 94.1865 108.948 95.0596C108.948 95.4756 108.825 95.8008 108.579 96.0352C108.339 96.2637 107.975 96.3779 107.489 96.3779C106.516 96.3779 106.03 95.9385 106.03 95.0596ZM108.825 107.426H106.144V97.5996H108.825V107.426ZM120.462 105.466C120.931 105.466 121.493 105.363 122.149 105.158V107.153C121.481 107.452 120.661 107.602 119.688 107.602C118.616 107.602 117.834 107.332 117.342 106.793C116.855 106.248 116.612 105.434 116.612 104.35V99.6123H115.329V98.4785L116.806 97.582L117.579 95.5078H119.293V97.5996H122.044V99.6123H119.293V104.35C119.293 104.73 119.398 105.012 119.609 105.193C119.826 105.375 120.11 105.466 120.462 105.466ZM133.215 107.426H130.534V101.687C130.534 100.269 130.007 99.5596 128.952 99.5596C128.202 99.5596 127.66 99.8145 127.326 100.324C126.992 100.834 126.825 101.66 126.825 102.803V107.426H124.144V93.75H126.825V96.5361C126.825 96.7529 126.805 97.2627 126.764 98.0654L126.702 98.8564H126.843C127.44 97.8955 128.39 97.415 129.69 97.415C130.845 97.415 131.721 97.7256 132.318 98.3467C132.916 98.9678 133.215 99.8584 133.215 101.019V107.426ZM140.044 99.3223C139.475 99.3223 139.03 99.5039 138.708 99.8672C138.386 100.225 138.201 100.734 138.154 101.396H141.916C141.904 100.734 141.731 100.225 141.397 99.8672C141.063 99.5039 140.612 99.3223 140.044 99.3223ZM140.422 107.602C138.84 107.602 137.603 107.165 136.713 106.292C135.822 105.419 135.377 104.183 135.377 102.583C135.377 100.937 135.787 99.665 136.607 98.7686C137.433 97.8662 138.573 97.415 140.026 97.415C141.415 97.415 142.496 97.8105 143.269 98.6016C144.043 99.3926 144.43 100.485 144.43 101.88V103.181H138.093C138.122 103.942 138.348 104.537 138.769 104.965C139.191 105.393 139.783 105.606 140.545 105.606C141.137 105.606 141.696 105.545 142.224 105.422C142.751 105.299 143.302 105.103 143.876 104.833V106.907C143.407 107.142 142.906 107.314 142.373 107.426C141.84 107.543 141.189 107.602 140.422 107.602ZM152.094 97.415C152.457 97.415 152.759 97.4414 152.999 97.4941L152.797 100.008C152.58 99.9492 152.316 99.9199 152.006 99.9199C151.15 99.9199 150.482 100.14 150.002 100.579C149.527 101.019 149.29 101.634 149.29 102.425V107.426H146.609V97.5996H148.64L149.035 99.252H149.167C149.472 98.7012 149.882 98.2588 150.397 97.9248C150.919 97.585 151.484 97.415 152.094 97.415ZM158.852 99.3223C158.284 99.3223 157.839 99.5039 157.516 99.8672C157.194 100.225 157.01 100.734 156.963 101.396H160.724C160.713 100.734 160.54 100.225 160.206 99.8672C159.872 99.5039 159.421 99.3223 158.852 99.3223ZM159.23 107.602C157.648 107.602 156.412 107.165 155.521 106.292C154.631 105.419 154.185 104.183 154.185 102.583C154.185 100.937 154.596 99.665 155.416 98.7686C156.242 97.8662 157.382 97.415 158.835 97.415C160.224 97.415 161.305 97.8105 162.078 98.6016C162.851 99.3926 163.238 100.485 163.238 101.88V103.181H156.901C156.931 103.942 157.156 104.537 157.578 104.965C158 105.393 158.592 105.606 159.353 105.606C159.945 105.606 160.505 105.545 161.032 105.422C161.559 105.299 162.11 105.103 162.684 104.833V106.907C162.216 107.142 161.715 107.314 161.182 107.426C160.648 107.543 159.998 107.602 159.23 107.602ZM167.668 103.163H165.523L165.075 94.5762H168.116L167.668 103.163ZM165.04 106.169C165.04 105.677 165.172 105.305 165.435 105.053C165.699 104.801 166.083 104.675 166.587 104.675C167.073 104.675 167.448 104.804 167.712 105.062C167.981 105.319 168.116 105.688 168.116 106.169C168.116 106.632 167.981 106.998 167.712 107.268C167.442 107.531 167.067 107.663 166.587 107.663C166.095 107.663 165.714 107.534 165.444 107.276C165.175 107.013 165.04 106.644 165.04 106.169Z" fill="black"/>
<ellipse cx="27.5987" cy="230.164" rx="9.61437" ry="9.27403" fill="#A7E5FF"/>
<rect x="23.2288" y="226.511" width="8.74034" height="6.74475" rx="1" fill="white"/>
<path d="M30.5122 234.38L31.3863 233.256H29.6382L30.5122 234.38Z" fill="white"/>
</g>
<g class="terminal" filter="url(#filter1_d)">
<rect x="57.2961" y="169.189" width="134.643" height="102.443" rx="20" fill="#3B7AD9"/>
<rect x="57.2961" y="166.262" width="134.643" height="16.9536" rx="8.47678" fill="#C4C4C4"/>
<rect x="57.2961" y="174.828" width="134.643" height="8.56665" fill="#C4C4C4"/>
<ellipse cx="65.8437" cy="175.64" rx="2.46931" ry="2.72901" fill="#FF6161"/>
<ellipse cx="73.3373" cy="175.752" rx="2.46931" ry="2.72901" fill="#FFE661"/>
<ellipse cx="81.0395" cy="175.82" rx="2.46931" ry="2.72901" fill="#61FF67"/>
<rect x="68.3844" y="196.939" width="102.962" height="6.66897" fill="#84B5FF"/>
<rect x="68.3844" y="230.284" width="95.834" height="7.33587" fill="#84B5FF"/>
<rect x="68.3844" y="210.277" width="83.9538" height="12.671" fill="#84B5FF"/>
<rect x="68.3844" y="246.29" width="68.9055" height="10.6704" fill="#84B5FF"/>
</g>
<g class="person" filter="url(#filter2_d)">
<path d="M155.032 334.265C149.35 336.811 137.049 334.113 131.609 332.445C128.297 335.226 121.174 342.2 118.026 345.34C105.311 350.001 103.041 353.785 103.495 355.094C105.304 363.879 140.195 353.233 157.414 346.811C159.921 345.169 156.871 337.763 155.032 334.265Z" fill="#F0F0F0"/>
<path d="M179.955 226.601C165.554 224.035 145.953 232.919 137.952 236.808C109.908 263.871 114.056 287.55 119.635 296.008C138.584 319.337 169.954 339.557 182.166 346.75C245.833 355.616 299.015 349.764 317.647 345C358.071 337.418 367.861 301.84 366.914 291.925C366.156 283.993 365.65 258.777 365.018 249.639C359.965 227.184 344.281 222.032 339.122 220.768C274.697 202.804 212.483 217.658 191.324 226.601H179.955Z" fill="#AE5858"/>
<path d="M221.997 284.9C210.94 282.891 185.913 281.064 174.27 289.831" stroke="black" stroke-opacity="0.2" stroke-width="5"/>
<path d="M307.088 253.634C309.308 248.098 319.087 238.751 340.444 245.653" stroke="black" stroke-opacity="0.2" stroke-width="5"/>
<path d="M321.572 260.194C303.106 253.241 255.712 249.564 213.859 290.475" stroke="black" stroke-opacity="0.2" stroke-width="5"/>
<path d="M144.268 247.015C153.111 233.483 165.217 235.739 170.165 238.558L174.586 256.638L164.164 264.221L153.427 334.502C149.637 335.902 137.952 333.919 132.583 332.752L138.268 280.843C138.521 277.81 142.374 257.027 144.268 247.015Z" fill="#FFD4AC"/>
<path d="M92.4758 333.919L162.901 256.93C168.27 264.901 178.439 281.135 176.165 282.301C173.891 283.468 133.741 324.004 113.951 344.126C108.645 344.826 97.4235 337.613 92.4758 333.919Z" fill="#FFD4AD"/>
<path d="M113.635 344.709C107.319 344.709 97.5287 337.321 93.4232 333.627C89.1283 334.793 79.4224 338.196 75.1063 339.751C61.4634 338.818 57.6316 341.306 57.4211 342.667C54.8946 351.299 91.3178 355.79 109.845 356.957C112.877 356.49 113.635 348.597 113.635 344.709Z" fill="#F0F0F0"/>
<path d="M253.538 286.967C230.042 291.633 192.587 285.898 176.797 282.01C169.47 277.344 161.638 259.846 162.585 257.222C163.533 254.597 168.901 255.764 168.901 255.764C168.901 255.764 164.164 239.433 168.901 237.683C173.639 235.933 229.852 250.806 229.852 250.806L289.54 262.179C284.235 270.111 263.328 282.01 253.538 286.967Z" fill="#161618"/>
<path d="M211.22 249.931L188.166 254.597" stroke="black"/>
<path d="M228.131 217.852L232.237 211.145L234.448 208.229L245.185 213.478L239.816 227.767L235.395 231.558C222.763 233.192 216.447 229.712 214.867 227.767L189.919 190.148C182.087 189.215 172.76 184.121 169.075 181.691C168.238 181.24 167.767 180.853 167.55 180.524C167.506 180.457 167.472 180.392 167.448 180.329C166.072 179.006 162.386 175.404 164.262 174.983C161.51 173.324 162.119 172.827 163.075 172.65C163.605 172.552 165.34 173.067 167.462 173.82C164.629 172.623 162.893 171.637 165.601 171.775C170.149 172.009 181.602 174.4 186.761 175.567C179.686 170.901 179.392 168.179 180.129 167.401C194.277 170.667 203.498 188.009 206.341 196.272L228.131 217.852Z" fill="#FFD4AC"/>
<path d="M266.05 173.317L299.559 175.974C299.559 175.974 317.511 188.359 321.425 195.326C325.339 202.294 324.048 222.184 321.425 228.059L310.068 226.893L298.356 225.745L290.488 252.847L228.936 249.722C232.399 243.036 238.352 230.278 243.034 217.117L231.221 208.139C235.698 197.662 248.932 176.031 266.05 173.317Z" fill="#4FBFFF"/>
<path d="M288.715 112.096C319.548 126.958 308.281 147.735 298.793 156.266L297.679 156.174L260.117 128.045C254.053 108.284 276.656 109.178 288.715 112.096Z" fill="#1A1717"/>
<path d="M288.047 141.587C306.101 139.999 302.181 149.15 297.965 153.924L297.282 160.589L295.135 181.537L271.847 179.622L273.506 163.436C256.651 162.05 256.542 143.478 258.594 134.365C260.262 126.821 268.006 126.177 271.67 126.799C281.663 125.316 286.751 136.04 288.047 141.587Z" fill="#FFD4AC"/>
<ellipse rx="11.6931" ry="3.07684" transform="matrix(0.996642 0.0818862 -0.101916 0.994793 283.455 180.839)" fill="#FFD4AC"/>
<path d="M251.012 266.262L210.904 242.349L179.323 248.473L212.167 271.219L251.012 266.262Z" fill="#B6B6B6"/>
<path d="M198.608 228.751L211.536 271.22L174.848 247.523L162.269 209.979L198.608 228.751Z" fill="#7E7B7B"/>
<path d="M298.429 225.788L321.121 227.767L308.173 251.972C306.733 256.425 305.381 263.7 287.961 262.762L241.685 258.554C234.009 257.963 217.705 257.061 213.897 258.175C212.555 256.504 213.534 253.212 228.186 253.412C223.873 253.159 214.287 253.514 210.442 256.961C209.809 257.05 208.801 256.881 209.834 255.495C210.461 254.653 212.81 253.49 215.312 252.487L208.585 254.603C207.958 254.303 207.212 253.534 209.244 252.862C211.159 251.624 216.003 248.929 220.06 248.051C225.131 246.954 287.038 248.905 290.488 250.41C290.674 245.357 296.488 232.725 298.429 225.788Z" fill="#FFD4AC"/>
</g>
<defs>
<filter id="filter0_d" x="0" y="0" width="385" height="254.745" filterUnits="userSpaceOnUse" color-interpolation-filters="sRGB">
<feFlood flood-opacity="0" result="BackgroundImageFix"/>
<feColorMatrix in="SourceAlpha" type="matrix" values="0 0 0 0 0 0 0 0 0 0 0 0 0 0 0 0 0 0 127 0"/>
<feOffset dy="4"/>
<feGaussianBlur stdDeviation="2"/>
<feColorMatrix type="matrix" values="0 0 0 0 0 0 0 0 0 0 0 0 0 0 0 0 0 0 0.25 0"/>
<feBlend mode="normal" in2="BackgroundImageFix" result="effect1_dropShadow"/>
<feBlend mode="normal" in="SourceGraphic" in2="effect1_dropShadow" result="shape"/>
</filter>
<filter id="filter1_d" x="53.2961" y="166.262" width="142.643" height="113.37" filterUnits="userSpaceOnUse" color-interpolation-filters="sRGB">
<feFlood flood-opacity="0" result="BackgroundImageFix"/>
<feColorMatrix in="SourceAlpha" type="matrix" values="0 0 0 0 0 0 0 0 0 0 0 0 0 0 0 0 0 0 127 0"/>
<feOffset dy="4"/>
<feGaussianBlur stdDeviation="2"/>
<feColorMatrix type="matrix" values="0 0 0 0 0 0 0 0 0 0 0 0 0 0 0 0 0 0 0.25 0"/>
<feBlend mode="normal" in2="BackgroundImageFix" result="effect1_dropShadow"/>
<feBlend mode="normal" in="SourceGraphic" in2="effect1_dropShadow" result="shape"/>
</filter>
<filter id="filter2_d" x="57.2961" y="110.519" width="319.679" height="257.907" filterUnits="userSpaceOnUse" color-interpolation-filters="sRGB">
<feFlood flood-opacity="0" result="BackgroundImageFix"/>
<feColorMatrix in="SourceAlpha" type="matrix" values="0 0 0 0 0 0 0 0 0 0 0 0 0 0 0 0 0 0 127 0"/>
<feOffset dx="5" dy="5"/>
<feGaussianBlur stdDeviation="2.5"/>
<feColorMatrix type="matrix" values="0 0 0 0 0 0 0 0 0 0 0 0 0 0 0 0 0 0 0.25 0"/>
<feBlend mode="normal" in2="BackgroundImageFix" result="effect1_dropShadow"/>
<feBlend mode="normal" in="SourceGraphic" in2="effect1_dropShadow" result="shape"/>
</filter>
</defs>
</svg>
