<svg width="295" height="301" viewBox="0 0 295 301" fill="none" xmlns="http://www.w3.org/2000/svg">
<g class="browser">
<g filter="url(#filter0_d)">
<rect x="4" y="0.952881" width="269.823" height="172.431" rx="20" fill="white"/>
</g>
<rect x="221.263" y="67" width="40.4526" height="99.3739" fill="#F2F2F2"/>
<rect x="19" y="118.848" width="197.258" height="51.4545" fill="#F2F2F2"/>
<rect x="19" y="101.173" width="197.258" height="9.42677" fill="#F2F2F2"/>
<rect x="66.5422" y="80.4683" width="149.716" height="9.42677" fill="#F2F2F2"/>
<ellipse cx="145.793" cy="30.8043" rx="16.6815" ry="15.7113" fill="#FDFFA5"/>
<path d="M4 28.8403H273.823V44.5516H4V28.8403Z" fill="#CCD6EF"/>
<path d="M4 44.552H273.823V61.4416H4V44.552Z" fill="#FFE7C2"/>
<path d="M31.8078 44.6925C20.9113 45.8982 8.73713 45.1888 4 44.6816V44.2456H273.823V45.2346C265.31 45.5907 257.184 45.0859 253.448 44.6925C242.629 45.8895 230.551 45.1988 225.743 44.6925C214.924 45.8895 202.846 45.1988 198.038 44.6925C187.219 45.8895 175.141 45.1988 170.333 44.6925C159.514 45.8895 147.436 45.1988 142.628 44.6925C131.809 45.8895 119.731 45.1988 114.923 44.6925C104.104 45.8895 92.0262 45.1988 87.2178 44.6925C76.3992 45.8895 64.3212 45.1988 59.5128 44.6925C48.6942 45.8895 36.6161 45.1988 31.8078 44.6925Z" fill="#CCD6EF"/>
<ellipse cx="17.3951" cy="12.5025" rx="2.39506" ry="2.50251" fill="#FF6161"/>
<ellipse cx="24.6634" cy="12.6058" rx="2.39506" ry="2.50251" fill="#FFE661"/>
<ellipse cx="32.1338" cy="12.668" rx="2.39506" ry="2.50251" fill="#61FF67"/>
<rect width="52.1979" height="48.1032" rx="24.0516" transform="matrix(-1 0 0 1 61.0162 46.0959)" fill="#BFE8FF"/>
<path d="M33.0177 52.0215C14.0053 57.7868 19.5739 68.9875 24.7348 73.8673L25.3983 73.8851L49.0875 61.7723C53.7124 52.0885 40.3013 51.2369 33.0177 52.0215Z" fill="#847777"/>
<path d="M31.8612 67.0344C21.2696 65.1846 23.1059 70.0578 25.3479 72.7257L25.4012 76.1494L25.5685 86.9098L39.4379 87.2834L39.3086 78.9686C49.3475 79.2391 50.3892 69.8151 49.6553 65.0693C49.0661 61.1422 44.5208 60.3679 42.3219 60.4716C36.4917 59.1412 32.9188 64.2924 31.8612 67.0344Z" fill="#FFD4AC"/>
<path d="M76.1963 77.5366H74.084V73.2231H70.126V77.5366H68.0068V67.5425H70.126V71.4595H74.084V67.5425H76.1963V77.5366ZM78.4727 67.9185C78.4727 67.2394 78.8509 66.8999 79.6074 66.8999C80.3639 66.8999 80.7422 67.2394 80.7422 67.9185C80.7422 68.242 80.6465 68.495 80.4551 68.6772C80.2682 68.855 79.9857 68.9438 79.6074 68.9438C78.8509 68.9438 78.4727 68.6021 78.4727 67.9185ZM80.6465 77.5366H78.5615V69.894H80.6465V77.5366ZM89.6973 76.0122C90.0618 76.0122 90.4993 75.9325 91.0098 75.7729V77.3247C90.4902 77.5571 89.8522 77.6733 89.0957 77.6733C88.2617 77.6733 87.6533 77.4637 87.2705 77.0444C86.8923 76.6206 86.7031 75.9871 86.7031 75.144V71.4595H85.7051V70.5776L86.8535 69.8804L87.4551 68.2671H88.7881V69.894H90.9277V71.4595H88.7881V75.144C88.7881 75.4403 88.8701 75.659 89.0342 75.8003C89.2028 75.9416 89.4238 76.0122 89.6973 76.0122ZM99.6162 77.5366H97.5312V73.0728C97.5312 71.9699 97.1211 71.4185 96.3008 71.4185C95.7174 71.4185 95.2959 71.6167 95.0361 72.0132C94.7764 72.4097 94.6465 73.0522 94.6465 73.9409V77.5366H92.5615V66.8999H94.6465V69.0669C94.6465 69.2355 94.6305 69.632 94.5986 70.2563L94.5508 70.8716H94.6602C95.125 70.1242 95.8633 69.7505 96.875 69.7505C97.7728 69.7505 98.4541 69.992 98.9189 70.4751C99.3838 70.9582 99.6162 71.6509 99.6162 72.5532V77.5366ZM104.928 71.2339C104.486 71.2339 104.139 71.3752 103.889 71.6577C103.638 71.9357 103.494 72.3322 103.458 72.8472H106.384C106.375 72.3322 106.24 71.9357 105.98 71.6577C105.721 71.3752 105.37 71.2339 104.928 71.2339ZM105.222 77.6733C103.991 77.6733 103.03 77.3338 102.337 76.6548C101.644 75.9757 101.298 75.0142 101.298 73.77C101.298 72.4894 101.617 71.5005 102.255 70.8032C102.897 70.1014 103.784 69.7505 104.914 69.7505C105.994 69.7505 106.835 70.0581 107.437 70.6733C108.038 71.2886 108.339 72.1385 108.339 73.2231V74.2349H103.41C103.433 74.8273 103.608 75.2899 103.937 75.6226C104.265 75.9552 104.725 76.1216 105.317 76.1216C105.778 76.1216 106.213 76.0737 106.623 75.978C107.033 75.8823 107.462 75.7297 107.908 75.52V77.1333C107.544 77.3156 107.154 77.45 106.739 77.5366C106.325 77.6278 105.819 77.6733 105.222 77.6733ZM114.3 69.7505C114.582 69.7505 114.817 69.771 115.004 69.812L114.847 71.7671C114.678 71.7215 114.473 71.6987 114.231 71.6987C113.566 71.6987 113.047 71.8696 112.673 72.2114C112.304 72.5532 112.119 73.0317 112.119 73.647V77.5366H110.034V69.894H111.613L111.921 71.1792H112.023C112.26 70.7508 112.579 70.4067 112.98 70.147C113.386 69.8826 113.826 69.7505 114.3 69.7505ZM119.557 71.2339C119.115 71.2339 118.768 71.3752 118.518 71.6577C118.267 71.9357 118.123 72.3322 118.087 72.8472H121.013C121.004 72.3322 120.869 71.9357 120.609 71.6577C120.35 71.3752 119.999 71.2339 119.557 71.2339ZM119.851 77.6733C118.62 77.6733 117.659 77.3338 116.966 76.6548C116.273 75.9757 115.927 75.0142 115.927 73.77C115.927 72.4894 116.246 71.5005 116.884 70.8032C117.526 70.1014 118.413 69.7505 119.543 69.7505C120.623 69.7505 121.464 70.0581 122.065 70.6733C122.667 71.2886 122.968 72.1385 122.968 73.2231V74.2349H118.039C118.062 74.8273 118.237 75.2899 118.565 75.6226C118.894 75.9552 119.354 76.1216 119.946 76.1216C120.407 76.1216 120.842 76.0737 121.252 75.978C121.662 75.8823 122.09 75.7297 122.537 75.52V77.1333C122.173 77.3156 121.783 77.45 121.368 77.5366C120.953 77.6278 120.448 77.6733 119.851 77.6733ZM126.413 74.2212H124.745L124.396 67.5425H126.762L126.413 74.2212ZM124.369 76.5591C124.369 76.1763 124.472 75.8869 124.677 75.6909C124.882 75.495 125.18 75.397 125.572 75.397C125.951 75.397 126.242 75.4972 126.447 75.6978C126.657 75.8983 126.762 76.1854 126.762 76.5591C126.762 76.9191 126.657 77.2039 126.447 77.4136C126.238 77.6187 125.946 77.7212 125.572 77.7212C125.189 77.7212 124.893 77.6209 124.684 77.4204C124.474 77.2153 124.369 76.9282 124.369 76.5591Z" fill="black"/>
<ellipse cx="20.8899" cy="161.797" rx="6.88111" ry="6.48091" fill="#A7E5FF"/>
<rect x="17.7622" y="159.244" width="6.25556" height="4.71339" rx="1" fill="white"/>
<path d="M22.9752 164.743L23.6007 163.958H22.3496L22.9752 164.743Z" fill="white"/>
</g>
<g class="mobile">
<g filter="url(#filter1_d)">
<rect x="193.663" width="97.3367" height="183.092" rx="5" fill="black"/>
</g>
<rect x="195.225" y="3.81421" width="93.693" height="176.099" rx="5" fill="white"/>
<rect x="201.099" y="134.605" width="83.5241" height="45.3082" fill="#F2F2F2"/>
<rect x="201.099" y="119.041" width="83.5241" height="8.30075" fill="#F2F2F2"/>
<rect x="200.82" y="100.901" width="83.7382" height="8.01861" fill="#F2F2F2"/>
<ellipse cx="241.788" cy="25.851" rx="11.2393" ry="16.9506" fill="#FDFFA5"/>
<path d="M195.225 23.897H288.886V40.8344H195.225V23.897Z" fill="#CCD6EF"/>
<path d="M195.225 40.8342H288.886V59.042H195.225V40.8342Z" fill="#FFE7C2"/>
<path d="M204.877 40.9864C201.095 42.2862 196.869 41.5214 195.225 40.9747V40.5046H288.886V41.5709C285.931 41.9547 283.11 41.4105 281.813 40.9864C278.058 42.2769 273.865 41.5322 272.196 40.9864C268.441 42.2769 264.248 41.5322 262.579 40.9864C258.824 42.2769 254.631 41.5322 252.962 40.9864C249.207 42.2769 245.014 41.5322 243.345 40.9864C239.59 42.2769 235.397 41.5322 233.728 40.9864C229.973 42.2769 225.78 41.5322 224.111 40.9864C220.356 42.2769 216.164 41.5322 214.494 40.9864C210.739 42.2769 206.547 41.5322 204.877 40.9864Z" fill="#CCD6EF"/>
<rect width="34.7718" height="31.025" rx="15.5125" transform="matrix(-1 0 0 1 261.772 43)" fill="#BFE8FF"/>
<path d="M243.12 46.822C230.455 50.5405 234.164 57.7646 237.602 60.9119L238.044 60.9234L253.825 53.111C256.906 46.8653 247.972 46.316 243.12 46.822Z" fill="#847777"/>
<path d="M242.35 56.5048C235.294 55.3117 236.517 58.4548 238.011 60.1755L238.046 62.3837L238.158 69.3238L247.397 69.5648L247.311 64.202C253.998 64.3765 254.692 58.2983 254.203 55.2374C253.811 52.7045 250.783 52.2051 249.318 52.272C245.434 51.4139 243.054 54.7363 242.35 56.5048Z" fill="#FFD4AC"/>
<path d="M225.098 93H223.287V89.3027H219.895V93H218.078V84.4336H219.895V87.791H223.287V84.4336H225.098V93ZM227.049 84.7559C227.049 84.1738 227.373 83.8828 228.021 83.8828C228.67 83.8828 228.994 84.1738 228.994 84.7559C228.994 85.0332 228.912 85.25 228.748 85.4062C228.588 85.5586 228.346 85.6348 228.021 85.6348C227.373 85.6348 227.049 85.3418 227.049 84.7559ZM228.912 93H227.125V86.4492H228.912V93ZM236.67 91.6934C236.982 91.6934 237.357 91.625 237.795 91.4883V92.8184C237.35 93.0176 236.803 93.1172 236.154 93.1172C235.439 93.1172 234.918 92.9375 234.59 92.5781C234.266 92.2148 234.104 91.6719 234.104 90.9492V87.791H233.248V87.0352L234.232 86.4375L234.748 85.0547H235.891V86.4492H237.725V87.791H235.891V90.9492C235.891 91.2031 235.961 91.3906 236.102 91.5117C236.246 91.6328 236.436 91.6934 236.67 91.6934ZM245.172 93H243.385V89.1738C243.385 88.2285 243.033 87.7559 242.33 87.7559C241.83 87.7559 241.469 87.9258 241.246 88.2656C241.023 88.6055 240.912 89.1562 240.912 89.918V93H239.125V83.8828H240.912V85.7402C240.912 85.8848 240.898 86.2246 240.871 86.7598L240.83 87.2871H240.924C241.322 86.6465 241.955 86.3262 242.822 86.3262C243.592 86.3262 244.176 86.5332 244.574 86.9473C244.973 87.3613 245.172 87.9551 245.172 88.7285V93ZM249.725 87.5977C249.346 87.5977 249.049 87.7188 248.834 87.9609C248.619 88.1992 248.496 88.5391 248.465 88.9805H250.973C250.965 88.5391 250.85 88.1992 250.627 87.9609C250.404 87.7188 250.104 87.5977 249.725 87.5977ZM249.977 93.1172C248.922 93.1172 248.098 92.8262 247.504 92.2441C246.91 91.6621 246.613 90.8379 246.613 89.7715C246.613 88.6738 246.887 87.8262 247.434 87.2285C247.984 86.627 248.744 86.3262 249.713 86.3262C250.639 86.3262 251.359 86.5898 251.875 87.1172C252.391 87.6445 252.648 88.373 252.648 89.3027V90.1699H248.424C248.443 90.6777 248.594 91.0742 248.875 91.3594C249.156 91.6445 249.551 91.7871 250.059 91.7871C250.453 91.7871 250.826 91.7461 251.178 91.6641C251.529 91.582 251.896 91.4512 252.279 91.2715V92.6543C251.967 92.8105 251.633 92.9258 251.277 93C250.922 93.0781 250.488 93.1172 249.977 93.1172ZM257.758 86.3262C258 86.3262 258.201 86.3438 258.361 86.3789L258.227 88.0547C258.082 88.0156 257.906 87.9961 257.699 87.9961C257.129 87.9961 256.684 88.1426 256.363 88.4355C256.047 88.7285 255.889 89.1387 255.889 89.666V93H254.102V86.4492H255.455L255.719 87.5508H255.807C256.01 87.1836 256.283 86.8887 256.627 86.666C256.975 86.4395 257.352 86.3262 257.758 86.3262ZM262.264 87.5977C261.885 87.5977 261.588 87.7188 261.373 87.9609C261.158 88.1992 261.035 88.5391 261.004 88.9805H263.512C263.504 88.5391 263.389 88.1992 263.166 87.9609C262.943 87.7188 262.643 87.5977 262.264 87.5977ZM262.516 93.1172C261.461 93.1172 260.637 92.8262 260.043 92.2441C259.449 91.6621 259.152 90.8379 259.152 89.7715C259.152 88.6738 259.426 87.8262 259.973 87.2285C260.523 86.627 261.283 86.3262 262.252 86.3262C263.178 86.3262 263.898 86.5898 264.414 87.1172C264.93 87.6445 265.188 88.373 265.188 89.3027V90.1699H260.963C260.982 90.6777 261.133 91.0742 261.414 91.3594C261.695 91.6445 262.09 91.7871 262.598 91.7871C262.992 91.7871 263.365 91.7461 263.717 91.6641C264.068 91.582 264.436 91.4512 264.818 91.2715V92.6543C264.506 92.8105 264.172 92.9258 263.816 93C263.461 93.0781 263.027 93.1172 262.516 93.1172ZM268.141 90.1582H266.711L266.412 84.4336H268.439L268.141 90.1582ZM266.389 92.1621C266.389 91.834 266.477 91.5859 266.652 91.418C266.828 91.25 267.084 91.166 267.42 91.166C267.744 91.166 267.994 91.252 268.17 91.4238C268.35 91.5957 268.439 91.8418 268.439 92.1621C268.439 92.4707 268.35 92.7148 268.17 92.8945C267.99 93.0703 267.74 93.1582 267.42 93.1582C267.092 93.1582 266.838 93.0723 266.658 92.9004C266.479 92.7246 266.389 92.4785 266.389 92.1621Z" fill="black"/>
<ellipse cx="277.888" cy="168.302" rx="6.92834" ry="7.92962" fill="#A7E5FF"/>
<rect x="274.739" y="165.178" width="6.29849" height="5.767" rx="1" fill="white"/>
<path d="M279.988 171.907L280.618 170.946H279.358L279.988 171.907Z" fill="white"/>
<ellipse cx="200.463" cy="8.73543" rx="2.50499" ry="2.44588" fill="black"/>
</g>
<g filter="url(#filter2_d)">
<path d="M129.272 273.425C125.205 275.204 116.402 273.318 112.508 272.153C110.137 274.097 105.039 278.97 102.787 281.164C93.6867 284.422 92.0617 287.066 92.3867 287.981C93.6814 294.12 118.653 286.68 130.977 282.193C132.772 281.045 130.588 275.869 129.272 273.425Z" fill="#F0F0F0"/>
<path d="M147.11 198.187C136.803 196.394 122.774 202.603 117.048 205.32C96.9768 224.232 99.9453 240.78 103.938 246.69C117.5 262.993 139.952 277.123 148.692 282.15C194.259 288.345 232.322 284.256 245.658 280.927C274.589 275.629 281.596 250.766 280.918 243.837C280.376 238.294 280.014 220.672 279.562 214.287C275.945 198.595 264.72 194.994 261.028 194.111C214.918 181.557 170.391 191.937 155.247 198.187H147.11Z" fill="#AE5858"/>
<path d="M177.2 238.928C169.286 237.524 151.374 236.247 143.041 242.374" stroke="black" stroke-opacity="0.2" stroke-width="5"/>
<path d="M238.1 217.078C239.689 213.21 246.688 206.678 261.973 211.501" stroke="black" stroke-opacity="0.2" stroke-width="5"/>
<path d="M248.466 221.663C235.25 216.804 201.33 214.234 171.376 242.824" stroke="black" stroke-opacity="0.2" stroke-width="5"/>
<path d="M121.569 212.453C127.897 202.997 136.562 204.573 140.103 206.543L143.267 219.178L135.808 224.477L128.123 273.591C125.411 274.569 117.048 273.183 113.206 272.368L117.274 236.093C117.455 233.973 120.212 219.45 121.569 212.453Z" fill="#FFD4AC"/>
<path d="M84.5002 273.183L134.904 219.382C138.747 224.952 146.025 236.296 144.398 237.112C142.77 237.927 114.035 266.254 99.8701 280.316C96.0729 280.805 88.0413 275.765 84.5002 273.183Z" fill="#FFD4AD"/>
<path d="M99.644 280.724C95.1234 280.724 88.1166 275.561 85.1782 272.979C82.1042 273.795 75.1576 276.172 72.0686 277.259C62.3042 276.607 59.5617 278.346 59.4111 279.297C57.6028 285.329 83.6713 288.468 96.9316 289.283C99.1015 288.957 99.644 283.441 99.644 280.724Z" fill="#F0F0F0"/>
<path d="M199.774 240.372C182.958 243.633 156.151 239.625 144.849 236.908C139.606 233.647 134 221.42 134.678 219.586C135.356 217.751 139.199 218.567 139.199 218.567C139.199 218.567 135.808 207.154 139.199 205.931C142.589 204.709 182.822 215.102 182.822 215.102L225.541 223.05C221.744 228.593 206.781 236.908 199.774 240.372Z" fill="#161618"/>
<path d="M169.486 214.49L152.986 217.751" stroke="black"/>
<path d="M181.59 192.073L184.529 187.386L186.111 185.348L193.796 189.016L189.953 199.002L186.789 201.651C177.748 202.793 173.227 200.361 172.097 199.002L154.241 172.713C148.635 172.06 141.96 168.501 139.323 166.803C138.601 166.423 138.259 166.108 138.158 165.851C137.174 164.926 134.536 162.409 135.878 162.115C133.909 160.956 134.344 160.608 135.029 160.485C135.408 160.417 136.65 160.776 138.169 161.302C136.141 160.466 134.899 159.776 136.837 159.874C140.092 160.037 148.289 161.708 151.981 162.523C146.918 159.262 146.707 157.36 147.234 156.817C157.36 159.099 163.96 171.218 165.994 176.992L181.59 192.073Z" fill="#FFD4AC"/>
<path d="M208.729 160.951L232.712 162.807C232.712 162.807 245.56 171.462 248.362 176.331C251.163 181.2 250.239 195.1 248.362 199.206L240.233 198.391L231.851 197.588L226.219 216.528L182.166 214.344C184.644 209.672 188.906 200.756 192.256 191.559L183.802 185.285C187.006 177.964 196.477 162.848 208.729 160.951Z" fill="#4FBFFF"/>
<path d="M224.95 118.173C247.02 128.564 238.96 143.083 232.172 149.043L231.375 148.979L204.486 129.314C200.143 115.503 216.319 116.132 224.95 118.173Z" fill="#1A1717"/>
<path d="M224.472 138.777C237.394 137.667 234.589 144.062 231.571 147.399L231.082 152.056L229.545 166.695L212.878 165.357L214.066 154.046C202.002 153.078 201.924 140.099 203.393 133.731C204.586 128.458 210.129 128.009 212.752 128.443C219.903 127.406 223.545 134.901 224.472 138.777Z" fill="#FFD4AC"/>
<ellipse rx="8.36755" ry="2.15071" transform="matrix(0.996798 0.0799666 -0.104352 0.99454 221.186 166.208)" fill="#FFD4AC"/>
<path d="M197.966 225.903L169.26 209.192L146.658 213.471L170.164 229.367L197.966 225.903Z" fill="#B6B6B6"/>
<path d="M160.46 199.689L169.712 229.368L143.455 212.808L134.452 186.571L160.46 199.689Z" fill="#7E7B7B"/>
<path d="M231.903 197.619L248.144 199.002L238.877 215.917C237.846 219.029 236.878 224.113 224.411 223.457L191.291 220.517C185.797 220.104 174.128 219.473 171.402 220.252C170.442 219.084 171.143 216.784 181.629 216.923C178.543 216.746 171.682 216.995 168.93 219.404C168.477 219.466 167.755 219.347 168.494 218.379C168.943 217.79 170.624 216.978 172.416 216.277L167.6 217.755C167.152 217.546 166.618 217.009 168.072 216.539C169.443 215.674 172.91 213.791 175.813 213.177C179.443 212.41 223.75 213.773 226.219 214.825C226.353 211.294 230.514 202.467 231.903 197.619Z" fill="#FFD4AC"/>
</g>
<defs>
<filter id="filter0_d" x="0" y="27.9529" width="277.823" height="180.431" filterUnits="userSpaceOnUse" color-interpolation-filters="sRGB">
<feFlood flood-opacity="0" result="BackgroundImageFix"/>
<feColorMatrix in="SourceAlpha" type="matrix" values="0 0 0 0 0 0 0 0 0 0 0 0 0 0 0 0 0 0 127 0"/>
<feOffset dy="4"/>
<feGaussianBlur stdDeviation="2"/>
<feColorMatrix type="matrix" values="0 0 0 0 0 0 0 0 0 0 0 0 0 0 0 0 0 0 0.25 0"/>
<feBlend mode="normal" in2="BackgroundImageFix" result="effect1_dropShadow"/>
<feBlend mode="normal" in="SourceGraphic" in2="effect1_dropShadow" result="shape"/>
</filter>
<filter id="filter1_d" x="189.663" y="0" width="105.337" height="191.092" filterUnits="userSpaceOnUse" color-interpolation-filters="sRGB">
<feFlood flood-opacity="0" result="BackgroundImageFix"/>
<feColorMatrix in="SourceAlpha" type="matrix" values="0 0 0 0 0 0 0 0 0 0 0 0 0 0 0 0 0 0 127 0"/>
<feOffset dy="4"/>
<feGaussianBlur stdDeviation="2"/>
<feColorMatrix type="matrix" values="0 0 0 0 0 0 0 0 0 0 0 0 0 0 0 0 0 0 0.25 0"/>
<feBlend mode="normal" in2="BackgroundImageFix" result="effect1_dropShadow"/>
<feBlend mode="normal" in="SourceGraphic" in2="effect1_dropShadow" result="shape"/>
</filter>
<filter id="filter2_d" x="59.3217" y="117.069" width="231.64" height="183.241" filterUnits="userSpaceOnUse" color-interpolation-filters="sRGB">
<feFlood flood-opacity="0" result="BackgroundImageFix"/>
<feColorMatrix in="SourceAlpha" type="matrix" values="0 0 0 0 0 0 0 0 0 0 0 0 0 0 0 0 0 0 127 0"/>
<feOffset dx="5" dy="5"/>
<feGaussianBlur stdDeviation="2.5"/>
<feColorMatrix type="matrix" values="0 0 0 0 0 0 0 0 0 0 0 0 0 0 0 0 0 0 0.25 0"/>
<feBlend mode="normal" in2="BackgroundImageFix" result="effect1_dropShadow"/>
<feBlend mode="normal" in="SourceGraphic" in2="effect1_dropShadow" result="shape"/>
</filter>
</defs>
</svg>
