<svg class="person-float" width="192" height="183" viewBox="0 0 192 183" fill="none" xmlns="http://www.w3.org/2000/svg">
<g filter="url(#filter0_d)">
<path d="M152.082 164.525C148.654 155.67 135.331 131.319 129.098 120.251L122.476 132.763C125.593 136.998 140.396 158.269 147.408 168.375C152.394 166.45 152.602 165.006 152.082 164.525Z" fill="#FFD4AC"/>
<path d="M173.261 112.245C171.776 112.258 169.77 111.103 168.953 110.524C172.025 106.412 172.157 104.032 171.839 103.356C176.54 98.4041 180.348 98.1314 181.664 98.614C181.321 103.244 175.919 109.63 173.261 112.245Z" fill="#F0F0F0"/>
<path d="M148.778 172.459C147.56 171.63 146.61 169.554 146.287 168.619C151.229 167.005 152.747 165.139 152.888 164.408C159.656 163.031 162.922 164.963 163.709 166.101C160.685 169.682 152.495 171.832 148.778 172.459Z" fill="#F0F0F0"/>
<path d="M128.876 88.24C137.848 85.2449 161.209 97.7244 171.767 104.339C172.134 105.593 170.752 108.065 170.015 109.144C144.989 100.829 133.896 102.36 131.477 104.165L128.876 88.24Z" fill="#FFD4AC"/>
<path d="M122.054 134.285C92.4475 138.519 84.0072 128.028 83.4878 122.253L108.809 90.9728L129.066 86.6416L132.572 105.41C125.092 110.03 116.21 112.789 112.704 113.591C122.677 112.436 128.546 116.318 130.234 118.404C129.299 120.714 124.391 129.953 122.054 134.285Z" fill="#161618"/>
<path d="M149.712 42.3673C133.195 50.8372 114.782 51.9921 107.64 51.5109L109.198 43.3298C115.12 43.3298 133.481 41.084 141.921 39.9611C146.907 30.7212 146.336 34.1862 145.427 37.0736C152.595 35.1486 149.452 36.5924 146.985 37.5549C153.218 36.7849 149.842 38.5174 147.375 39.4798C152.361 38.7099 149.712 40.4423 147.764 41.4048C150.257 41.0198 150.102 41.8861 149.712 42.3673Z" fill="#FFD4AC"/>
<path d="M5.96671 26.0049C15.6276 36.3997 34.9235 40.6026 43.3638 41.4046V51.5107C36.3518 52.4732 12.1996 36.5922 10.2518 35.6297C8.69362 34.8597 6.48614 34.6672 5.57717 34.6672C0.279217 34.6672 3.36969 33.7048 5.57717 33.2235C-2.52557 32.8385 2.20103 32.1006 5.57717 31.7798C-4.70704 31.3948 1.55177 30.6569 5.96671 30.3361C-0.266164 30.3361 0.253268 29.6944 1.29209 29.3736L5.96671 28.8923C4.09685 26.5824 5.1876 26.0049 5.96671 26.0049Z" fill="#FFD4AD"/>
<path d="M41.2737 56.3617V40.3534L61.9456 41.1608C64.1176 39.4736 68.6919 37.3848 77.075 35.8781C85.4582 34.3714 104.134 38.8922 111.378 42.188L108.028 54.4784C105.545 55.2317 98.7955 53.6338 97.1614 54.4784L98.7838 59.3892L101.042 65.6666C102.426 69.2376 102.241 72.27 104.338 76.232C106.067 80.7275 106.288 84.3903 108.328 86.2105C111.133 88.714 112.727 88.2649 108.028 92.145C106.855 93.1143 96.8482 110.716 95.6089 111.449C94.2799 112.235 91.0061 118.053 89.7873 119.453C88.5529 120.871 83.3665 121.722 81.7187 122.749L59.9029 58.2451C55.8666 58.2451 45.8016 56.9895 41.2737 56.3617Z" fill="#4FC0FF"/>
<path d="M77.7733 0.40348C91.9098 7.62598 87.9175 20.3406 84.1543 25.7951H83.6635L65.9928 11.1244C62.4587 -0.160778 72.3739 -0.725035 77.7733 0.40348Z" fill="#1A1717"/>
<path d="M79.1576 16.3707C86.9747 14.5706 85.6718 20.1207 84.0433 23.1208V27.0584V39.4337H73.7834V29.871C66.3571 29.871 65.4777 18.9957 65.9663 13.5581C66.3571 9.05798 69.712 8.30795 71.3405 8.49545C75.6399 7.14542 78.3433 13.1831 79.1576 16.3707Z" fill="#FFD4AD"/>
<ellipse cx="78.9056" cy="39.4341" rx="5.15922" ry="2.07547" fill="#FFD4AC"/>
</g>
<defs>
<filter id="filter0_d" x="0" y="0" width="191.664" height="182.459" filterUnits="userSpaceOnUse" color-interpolation-filters="sRGB">
<feFlood flood-opacity="0" result="BackgroundImageFix"/>
<feColorMatrix in="SourceAlpha" type="matrix" values="0 0 0 0 0 0 0 0 0 0 0 0 0 0 0 0 0 0 127 0"/>
<feOffset dx="5" dy="5"/>
<feGaussianBlur stdDeviation="2.5"/>
<feColorMatrix type="matrix" values="0 0 0 0 0 0 0 0 0 0 0 0 0 0 0 0 0 0 0.25 0"/>
<feBlend mode="normal" in2="BackgroundImageFix" result="effect1_dropShadow"/>
<feBlend mode="normal" in="SourceGraphic" in2="effect1_dropShadow" result="shape"/>
</filter>
</defs>
</svg>
