<svg width="192" height="183" viewBox="0 0 192 183" fill="none" xmlns="http://www.w3.org/2000/svg">
<g filter="url(#filter0_d)">
<path d="M152.082 164.525C148.654 155.67 135.331 131.319 129.098 120.251L122.476 132.763C125.593 136.998 140.396 158.269 147.408 168.375C152.394 166.45 152.602 165.006 152.082 164.525Z" fill="#FFD4AC"/>
<path d="M173.261 112.245C171.776 112.258 169.77 111.103 168.953 110.524C172.025 106.412 172.157 104.032 171.839 103.356C176.54 98.4041 180.348 98.1314 181.664 98.614C181.321 103.244 175.919 109.63 173.261 112.245Z" fill="#F0F0F0"/>
<path d="M148.778 172.459C147.56 171.63 146.61 169.554 146.287 168.619C151.229 167.005 152.747 165.139 152.888 164.408C159.656 163.031 162.922 164.963 163.709 166.101C160.685 169.682 152.495 171.832 148.778 172.459Z" fill="#F0F0F0"/>
<path d="M128.876 88.24C137.848 85.2449 161.209 97.7244 171.767 104.339C172.134 105.593 170.752 108.065 170.015 109.144C144.989 100.829 133.896 102.36 131.477 104.165L128.876 88.24Z" fill="#FFD4AC"/>
<path d="M122.054 134.285C92.4475 138.519 84.0072 128.028 83.4878 122.253L108.809 90.9728L129.066 86.6416L132.572 105.41C125.092 110.03 116.21 112.789 112.704 113.591C122.677 112.436 128.546 116.318 130.234 118.404C129.299 120.714 124.391 129.953 122.054 134.285Z" fill="#161618"/>
<path d="M149.712 42.3673C133.195 50.8372 114.782 51.9921 107.64 51.5109L109.198 43.3298C115.12 43.3298 133.481 41.084 141.921 39.9611C146.907 30.7212 146.336 34.1862 145.427 37.0736C152.595 35.1486 149.452 36.5924 146.985 37.5549C153.218 36.7849 149.842 38.5174 147.375 39.4798C152.361 38.7099 149.712 40.4423 147.764 41.4048C150.257 41.0198 150.102 41.8861 149.712 42.3673Z" fill="#FFD4AC"/>
<path d="M5.96671 26.0049C15.6276 36.3997 34.9235 40.6026 43.3638 41.4046V51.5107C36.3518 52.4732 12.1996 36.5922 10.2518 35.6297C8.69362 34.8597 6.48614 34.6672 5.57717 34.6672C0.279217 34.6672 3.36969 33.7048 5.57717 33.2235C-2.52557 32.8385 2.20103 32.1006 5.57717 31.7798C-4.70704 31.3948 1.55177 30.6569 5.96671 30.3361C-0.266164 30.3361 0.253268 29.6944 1.29209 29.3736L5.96671 28.8923C4.09685 26.5824 5.1876 26.0049 5.96671 26.0049Z" fill="#FFD4AD"/>
<path d="M41.2737 56.3617V40.3534L61.9456 41.1608C64.1176 39.4736 68.6919 37.3848 77.075 35.8781C85.4582 34.3714 104.134 38.8922 111.378 42.188L108.028 54.4784C105.545 55.2317 98.7955 53.6338 97.1614 54.4784L98.7838 59.3892L101.042 65.6666C102.426 69.2376 102.241 72.27 104.338 76.232C106.067 80.7275 106.288 84.3903 108.328 86.2105C111.133 88.714 112.727 88.2649 108.028 92.145C106.855 93.1143 96.8482 110.716 95.6089 111.449C94.2799 112.235 91.0061 118.053 89.7873 119.453C88.5529 120.871 83.3665 121.722 81.7187 122.749L59.9029 58.2451C55.8666 58.2451 45.8016 56.9895 41.2737 56.3617Z" fill="#4FC0FF"/>
<path d="M77.7733 0.40348C91.9098 7.62598 87.9175 20.3406 84.1543 25.7951H83.6635L65.9928 11.1244C62.4587 -0.160778 72.3739 -0.725035 77.7733 0.40348Z" fill="#1A1717"/>
<path d="M79.1576 16.3707C86.9747 14.5706 85.6718 20.1207 84.0433 23.1208V27.0584V39.4337H73.7834V29.871C66.3571 29.871 65.4777 18.9957 65.9663 13.5581C66.3571 9.05798 69.712 8.30795 71.3405 8.49545C75.6399 7.14542 78.3433 13.1831 79.1576 16.3707Z" fill="#FFD4AD"/>
<ellipse cx="78.9056" cy="39.4341" rx="5.15922" ry="2.07547" fill="#FFD4AC"/>
</g>
<path d="M70.5356 70.6772C70.7229 70.613 70.8713 70.5464 70.9808 70.4772C71.094 70.4003 71.1787 70.3237 71.235 70.2474C71.2894 70.1653 71.3181 70.0826 71.3212 69.999C71.3243 69.9155 71.3103 69.8284 71.2792 69.7375C71.2131 69.5445 71.0678 69.4167 70.8434 69.3541C70.6171 69.2857 70.2572 69.2536 69.7639 69.2576C69.5476 69.2556 69.3284 69.2451 69.1062 69.226C68.8821 69.2013 68.6711 69.1499 68.4731 69.0719C68.2732 68.9881 68.0929 68.8691 67.9323 68.7149C67.7697 68.5549 67.6417 68.3387 67.5484 68.0663C67.4551 67.7938 67.4225 67.5322 67.4508 67.2815C67.4772 67.0252 67.5578 66.7883 67.6926 66.5708C67.8274 66.3534 68.0146 66.1593 68.2542 65.9885C68.4918 65.8119 68.7781 65.6663 69.113 65.5516C69.5103 65.4155 69.8683 65.3405 70.187 65.3265C70.5056 65.3125 70.7761 65.3245 70.9984 65.3625L70.974 66.541C70.7802 66.5122 70.5704 66.5016 70.3447 66.5092C70.1227 66.5091 69.8698 66.5577 69.586 66.6549C69.2681 66.7637 69.0538 66.8879 68.943 67.0273C68.8359 67.1591 68.8135 67.3158 68.8757 67.4975C68.9126 67.6053 68.9693 67.6874 69.0456 67.7437C69.122 67.8 69.2163 67.8438 69.3285 67.8751C69.4444 67.8989 69.5708 67.9158 69.7075 67.9261C69.8479 67.9287 70.0006 67.9303 70.1657 67.9309C70.5111 67.9394 70.8168 67.9616 71.0827 67.9973C71.3467 68.0274 71.5778 68.091 71.7759 68.188C71.9797 68.2831 72.1525 68.4173 72.2944 68.5907C72.4362 68.7641 72.5557 68.9927 72.6529 69.2765C72.8415 69.8271 72.7953 70.3218 72.5143 70.7605C72.2314 71.1936 71.7011 71.5433 70.9234 71.8096C70.6623 71.8991 70.4209 71.9627 70.1992 72.0006C69.9795 72.0441 69.7795 72.0714 69.5994 72.0824C69.4249 72.0914 69.2693 72.0908 69.1326 72.0805C69.0015 72.0683 68.8885 72.0531 68.7935 72.0349L68.8065 70.8508C69.0155 70.887 69.2614 70.9011 69.544 70.8931C69.8304 70.8775 70.1609 70.8055 70.5356 70.6772ZM77.7114 69.3515C77.5261 69.1993 77.3133 69.0408 77.0728 68.8758C76.8361 68.7032 76.5834 68.5392 76.3145 68.3839C76.0495 68.221 75.7798 68.0724 75.5054 67.9381C75.2291 67.798 74.9616 67.6835 74.7028 67.5946L75.5573 70.0893L74.229 70.5443L72.2081 64.6437L73.5363 64.1888L74.3004 66.4196C74.5222 65.9377 74.7392 65.4417 74.9513 64.9314C75.1671 64.4135 75.3681 63.9356 75.5543 63.4977L77.1294 62.9582C76.8897 63.573 76.6413 64.1718 76.3843 64.7545C76.1329 65.3353 75.8598 65.9267 75.565 66.5287C76.1702 66.759 76.7838 67.069 77.4055 67.4585C78.033 67.8461 78.66 68.2973 79.2866 68.812L77.7114 69.3515ZM78.0285 62.6502L79.3567 62.1953L81.3777 68.0958L80.0494 68.5507L78.0285 62.6502ZM86.2949 65.1369L86.6856 66.2778L82.7435 67.628L80.7225 61.7275L82.0508 61.2726L83.6809 66.0322L86.2949 65.1369ZM91.0926 63.4937L91.4833 64.6346L87.5411 65.9848L85.5202 60.0843L86.8485 59.6294L88.4786 64.3889L91.0926 63.4937ZM93.7424 62.7288C93.9297 62.6646 94.0781 62.5979 94.1876 62.5287C94.3008 62.4519 94.3855 62.3753 94.4418 62.2989C94.4962 62.2169 94.5249 62.1341 94.528 62.0506C94.5311 61.9671 94.5171 61.8799 94.486 61.7891C94.4199 61.5961 94.2747 61.4683 94.0503 61.4056C93.8239 61.3373 93.4641 61.3052 92.9708 61.3092C92.7545 61.3072 92.5352 61.2967 92.3131 61.2776C92.089 61.2529 91.8779 61.2015 91.6799 61.1235C91.48 61.0397 91.2997 60.9207 91.1391 60.7664C90.9765 60.6065 90.8485 60.3903 90.7552 60.1178C90.6619 59.8454 90.6294 59.5838 90.6577 59.3331C90.684 59.0767 90.7646 58.8398 90.8994 58.6224C91.0343 58.405 91.2215 58.2109 91.461 58.04C91.6987 57.8635 91.9849 57.7179 92.3198 57.6032C92.7172 57.4671 93.0752 57.3921 93.3938 57.378C93.7125 57.364 93.9829 57.376 94.2053 57.4141L94.1808 58.5926C93.987 58.5638 93.7773 58.5532 93.5515 58.5607C93.3295 58.5607 93.0766 58.6092 92.7928 58.7065C92.4749 58.8153 92.2606 58.9395 92.1498 59.0789C92.0427 59.2107 92.0203 59.3674 92.0825 59.5491C92.1195 59.6569 92.1761 59.739 92.2525 59.7953C92.3288 59.8516 92.4231 59.8954 92.5353 59.9267C92.6513 59.9504 92.7776 59.9674 92.9143 59.9777C93.0547 59.9803 93.2075 59.9819 93.3725 59.9824C93.718 59.991 94.0236 60.0131 94.2896 60.0489C94.5535 60.079 94.7846 60.1425 94.9827 60.2396C95.1865 60.3347 95.3594 60.4689 95.5012 60.6423C95.643 60.8157 95.7626 61.0443 95.8598 61.3281C96.0484 61.8787 96.0021 62.3734 95.7211 62.8121C95.4382 63.2452 94.9079 63.5949 94.1302 63.8612C93.8691 63.9506 93.6277 64.0143 93.406 64.0522C93.1863 64.0957 92.9863 64.123 92.8062 64.1339C92.6317 64.143 92.4761 64.1424 92.3394 64.1321C92.2084 64.1199 92.0954 64.1047 92.0003 64.0865L92.0134 62.9024C92.2224 62.9386 92.4682 62.9527 92.7509 62.9447C93.0372 62.9291 93.3677 62.8571 93.7424 62.7288Z" fill="white"/>
<defs>
<filter id="filter0_d" x="0" y="0" width="191.664" height="182.459" filterUnits="userSpaceOnUse" color-interpolation-filters="sRGB">
<feFlood flood-opacity="0" result="BackgroundImageFix"/>
<feColorMatrix in="SourceAlpha" type="matrix" values="0 0 0 0 0 0 0 0 0 0 0 0 0 0 0 0 0 0 127 0"/>
<feOffset dx="5" dy="5"/>
<feGaussianBlur stdDeviation="2.5"/>
<feColorMatrix type="matrix" values="0 0 0 0 0 0 0 0 0 0 0 0 0 0 0 0 0 0 0.25 0"/>
<feBlend mode="normal" in2="BackgroundImageFix" result="effect1_dropShadow"/>
<feBlend mode="normal" in="SourceGraphic" in2="effect1_dropShadow" result="shape"/>
</filter>
</defs>
</svg>
