<svg width="86" height="85" viewBox="0 0 86 85" fill="none" xmlns="http://www.w3.org/2000/svg">
<g clip-path="url(#clip0)">
<path d="M86 16.1447C82.8019 17.5312 79.3941 18.4503 75.8412 18.8966C79.4962 16.7397 82.2859 13.3503 83.5974 9.265C80.1896 11.2731 76.4271 12.6916 72.4174 13.4831C69.1816 10.0778 64.5699 7.96875 59.5389 7.96875C49.7779 7.96875 41.9196 15.7994 41.9196 25.3991C41.9196 26.7803 42.0379 28.1084 42.3281 29.3728C27.6705 28.6662 14.7006 21.7228 5.98775 11.1456C4.46662 13.7541 3.57438 16.7397 3.57438 19.9538C3.57438 25.9888 6.71875 31.3384 11.4058 34.4356C8.57312 34.3825 5.79425 33.5697 3.44 32.2894C3.44 32.3425 3.44 32.4116 3.44 32.4806C3.44 40.9487 9.55137 47.9825 17.5655 49.6028C16.1304 49.9906 14.5662 50.1766 12.943 50.1766C11.8142 50.1766 10.6747 50.1128 9.60512 49.8791C11.8895 56.78 18.3718 61.8534 26.0795 62.0181C20.081 66.6559 12.4646 69.4503 4.21938 69.4503C2.7735 69.4503 1.38675 69.3866 0 69.2113C7.80987 74.1891 17.0656 77.0312 27.047 77.0312C59.4905 77.0312 77.228 50.4688 77.228 27.4444C77.228 26.6741 77.2011 25.9303 77.1635 25.1919C80.6626 22.7375 83.6028 19.6722 86 16.1447Z" fill="#2DC0FF"/>
</g>
<defs>
<clipPath id="clip0">
<rect width="86" height="85" fill="white"/>
</clipPath>
</defs>
</svg>
