<svg width="80" height="80" viewBox="0 0 80 80" fill="none" xmlns="http://www.w3.org/2000/svg">
<path d="M80 40C80 43.618 79.52 47.1248 78.6188 50.4588C76.5127 58.2547 72.1094 65.1069 66.178 70.2448C59.1625 76.3233 50.0114 80 40 80C17.9086 80 0 62.0914 0 40C0 17.9086 17.9086 0 40 0C62.0914 0 80 17.9086 80 40Z" fill="#0078CF"/>
<path d="M78.6188 50.4586C76.5127 58.2546 72.1094 65.1068 66.178 70.2447C65.5985 70.2758 64.9927 70.2905 64.3641 70.2905C56.0588 70.2905 51.4433 65.1004 49.1494 61.2064L56.6793 56.6824C56.6793 56.6824 59.2408 62.1257 64.0425 62.1257C68.8458 62.1257 70.7674 60.5241 70.7674 56.8424C70.7674 52.3591 55.2375 50.7591 52.836 43.0743C50.4344 35.3894 53.636 24.5011 64.8441 25.3028C71.8482 25.8024 75.7879 29.2424 77.7583 31.7518L70.2872 37.1493C68.6857 32.5077 62.1224 32.5077 60.8407 36.3493C59.5607 40.1925 63.8822 42.4325 70.6072 44.6741C74.0621 45.8252 76.8408 47.9493 78.6188 50.4586Z" fill="#FEFEFE"/>
<path d="M47.0224 26.5291H12.9854V34.5628H25.4586V69.4453H34.5493V34.5628H47.0224V26.5291Z" fill="#FEFEFE"/>
</svg>
